<?xml version="1.0" encoding="UTF-8"?>
<!DOCTYPE svg PUBLIC "-//W3C//DTD SVG 1.1//EN" "http://www.w3.org/Graphics/SVG/1.1/DTD/svg11.dtd">
<!-- Creator: CorelDRAW 2020 (64-Bit) -->
<svg xmlns="http://www.w3.org/2000/svg" xml:space="preserve" width="6669px" height="7499px" version="1.1" style="shape-rendering:geometricPrecision; text-rendering:geometricPrecision; image-rendering:optimizeQuality; fill-rule:evenodd; clip-rule:evenodd"
viewBox="0 0 6354.56 7145.38"
 xmlns:xlink="http://www.w3.org/1999/xlink"
 xmlns:xodm="http://www.corel.com/coreldraw/odm/2003">
 <defs>
  <style type="text/css">
   <![CDATA[
    .str0 {stroke:white;stroke-width:33.74;stroke-miterlimit:22.9256;stroke-opacity:0.078431}
    .fil6 {fill:none}
    .fil5 {fill:none;fill-rule:nonzero}
    .fil0 {fill:#021B66}
    .fil1 {fill:#021B66;fill-rule:nonzero}
    .fil7 {fill:#FEFEFE;fill-rule:nonzero}
    .fil4 {fill:white;fill-rule:nonzero;fill-opacity:0.078431}
    .fil2 {fill:url(#id1);fill-rule:nonzero}
    .fil3 {fill:url(#id2);fill-rule:nonzero}
   ]]>
  </style>
    <clipPath id="id0">
     <path d="M0 7145.38l6354.56 0 0 -7145.38 -6354.56 0 0 7145.38z"/>
    </clipPath>
  <linearGradient id="id1" gradientUnits="userSpaceOnUse" x1="3172.38" y1="805.13" x2="3172.38" y2="6331.63">
   <stop offset="0" style="stop-opacity:0.0588235; stop-color:white"/>
   <stop offset="1" style="stop-opacity:0; stop-color:white"/>
  </linearGradient>
  <linearGradient id="id2" gradientUnits="userSpaceOnUse" xlink:href="#id1" x1="3172.38" y1="1579.63" x2="3172.38" y2="5535.25">
  </linearGradient>
 </defs>
 <g id="Слой_x0020_1">
  <metadata id="CorelCorpID_0Corel-Layer"/>
  <g id="_2459664285040">
   <polygon class="fil0" points="0,7145.38 6354.56,7145.38 6354.56,0 0,0 "/>
   <polygon class="fil0" points="0,7145.38 6354.56,7145.38 6354.56,0 0,0 "/>
   <g style="clip-path:url(#id0)">
    <g>
     <rect class="fil1" width="6354.56" height="7145.38"/>
     <circle class="fil2" cx="3172.6" cy="3572.67" r="2763.25"/>
     <circle class="fil3" cx="3179.42" cy="3565.88" r="1975.67"/>
     <polygon class="fil4" points="493.1,837.33 1051.35,837.33 1051.35,279.13 493.1,279.13 "/>
     <polygon class="fil5 str0" points="789.11,1099.57 1313.58,1099.57 1313.58,575.1 789.11,575.1 "/>
     <path class="fil4" d="M6612.77 5354.49c-87.12,-12.12 -175.82,-7 -260.93,15.14 -85.15,22.14 -165.09,60.82 -235.28,113.86 -70.18,53.03 -129.25,119.37 -173.8,195.2 -44.54,75.87 -73.73,159.75 -85.85,246.87 -12.16,87.12 -7,175.78 15.14,260.93 22.1,85.15 60.78,165.09 113.85,235.28 52.99,70.18 119.33,129.26 195.2,173.8 75.84,44.55 159.72,73.73 246.88,85.85l92.37 -663.44 92.42 -663.49z"/>
    </g>
   </g>
   <polygon class="fil6" points="0,7145.38 6354.56,7145.38 6354.56,0 0,0 "/>
   <polygon class="fil6" points="0,7145.38 6354.56,7145.38 6354.56,0 0,0 "/>
  </g>
  <g id="_2459664288640">
   <g id="_2493836607168">
    <path class="fil7" d="M3752.97 2845.72c-63.99,31.74 -116.28,58.53 -116.28,59.31 -0.26,0.78 10.41,7.02 23.15,13.79l23.42 12.22 0 35.9c0,29.92 -0.79,36.69 -4.17,39.55 -2.86,2.34 -3.64,5.98 -2.86,12.74 0.78,4.94 0.52,15.61 -0.78,23.42 -2.08,15.61 -0.52,18.21 10.41,18.21 12.22,0 13.79,-2.87 10.92,-21.08 -1.56,-10.92 -1.56,-18.2 0,-21.33 1.82,-3.64 1.3,-6.24 -2.86,-10.66 -4.94,-5.21 -5.46,-8.85 -5.46,-38.76 0,-18.21 0.78,-33.04 1.82,-33.04 0.78,0 41.88,19.51 91.31,43.44l89.49 43.45 116.8 -58.54c64.26,-31.99 116.8,-58.79 116.8,-59.57 0,-1.04 -228.92,-114.98 -233.86,-116.29 -0.78,-0.25 -53.85,25.5 -117.85,57.24l0 0z"/>
    <path class="fil7" d="M2941.84 2802.01c-7.8,1.82 -17.95,3.65 -22.63,3.65 -10.66,0.25 -42.92,10.66 -60.87,19.76 -47.09,23.68 -81.68,64.26 -97.55,114.47 -4.43,14.05 -4.95,24.19 -4.95,94.95l0 79.34 71.54 0 71.54 0 1.3 -66.33c1.3,-62.96 1.57,-66.86 7.55,-78.82 10.14,-21.08 30.69,-32.78 57.49,-33.04 20.29,0 32.52,4.16 44.74,15.09 20.03,17.95 21.34,24.19 22.89,98.07l1.31 65.03 71.54 0 71.54 0 0.78 -63.73c0.52,-41.37 -0.26,-71.54 -2.34,-85.85 -3.9,-26.27 -15.36,-55.15 -32,-80.12 -27.06,-40.84 -78.83,-71.02 -137.88,-80.12 -36.68,-5.73 -47.61,-6.25 -63.99,-2.35l-0.01 0z"/>
    <path class="fil7" d="M2302.41 2804.62c-2.34,2.86 -3.12,18.72 -2.6,66.85l0.78 63.22 71.54 1.3c39.28,0.78 71.8,1.82 72.32,2.08 0.26,0.26 0.52,40.32 0.52,88.97l0 88.45 72.84 0 72.84 0 0 -88.19c0,-78.04 0.52,-88.45 4.16,-89.75 2.34,-0.78 33.56,-1.56 69.72,-1.56 47.61,0 66.34,-0.78 68.68,-3.12 4.68,-4.69 4.16,-121.49 -0.52,-127.73 -3.12,-4.17 -16.39,-4.43 -215.14,-4.43 -180.8,0.26 -212.28,0.78 -215.14,3.91l0 0z"/>
    <path class="fil7" d="M3276.12 2822.05c-0.77,1.81 -1.03,68.41 -0.77,147.75l0.77 144.38 71.03 0.79 70.76 0.52 2.6 -6.51c1.55,-3.9 2.6,-39.28 2.6,-82.2l0 -75.18 81.42 -0.52 81.17 -0.78 0 -65.04 0 -65.03 -154.27 -0.79c-122,-0.52 -154.52,0 -155.31,2.61l0 0z"/>
    <path class="fil7" d="M3732.68 3057.74l0 48.64 71.54 35.9 71.54 35.64 71.54 -36.68 71.54 -36.68 0 -46.57c0,-25.49 -0.53,-46.56 -1.3,-46.56 -0.79,0 -33.04,15.35 -71.8,34.34l-70.51 34.34 -71.28 -35.64 -71.27 -35.64 0 48.91 0 0z"/>
    <path class="fil7" d="M2448.87 3178.44c-0.78,1.82 -1.04,120.97 -0.78,264.83l0.78 261.44 72.32 0.79 72.06 0.52 0 -265.35 0 -265.35 -71.54 0c-54.89,0 -72.06,0.78 -72.84,3.12z"/>
    <path class="fil7" d="M2752.46 3380.05l4.36 203.7 2.66 18.2c12.23,34.34 21.86,50.22 42.93,72.33 17.17,17.94 37.46,30.18 65.81,39.8 21.08,7.02 25.24,7.54 61.14,7.54 34.86,0 40.32,-0.52 58.53,-7.02 11.19,-3.64 24.46,-9.1 29.4,-11.97 20.03,-11.45 58.53,-43.96 58.53,-56.45 4.75,-4.88 -4.62,-7.54 -0.97,-3.9 1.95,1.95 0.97,15.35 0.97,32l0 30.43 50.73 0 50.73 0 0 -264.04 0 -264.05 -105.36 0 -105.36 0 -0.78 52.03c-0.26,28.61 0,54.63 0.78,57.75 1.3,5.47 2.86,5.99 33.3,6.51l31.74 0.77 0.78 122.27c0.52,78.05 -0.26,125.66 -1.83,131.38 -4.15,14.04 -18.99,29.65 -34.59,36.42 -34.34,14.82 -76.49,1.04 -90.79,-29.92 -4.43,-9.88 -4.95,-20.81 -4.95,-190.43 0,-98.85 -0.77,-181.57 -1.56,-183.91 -1.3,-3.65 -10.4,-4.17 -74.14,-4.17l-72.84 0 0.78 204.74 0 -0.01z"/>
    <polygon class="fil7" points="3272.22,3440.67 3272.22,3706.02 3345.84,3705.5 3419.21,3704.71 3420.5,3501.8 3421.81,3298.89 3494.64,3297.59 3567.49,3296.29 3567.49,3236.45 3567.49,3176.62 3419.98,3175.84 3272.22,3175.32 "/>
    <path class="fil7" d="M3655.67 3178.96c-0.77,1.82 -1.03,89.23 -0.51,194.33l3.05 190.94 4.49 21.34c12.49,39.54 39.28,76.74 70.5,97.55 26.54,17.43 39.8,23.68 69.72,32.26 21.85,6.24 26.01,6.5 70.76,5.72 46.04,-0.78 48.39,-1.3 73.36,-9.63 31.99,-11.18 66.33,-31.99 84.02,-51.5 16.13,-17.69 35.64,-51.25 41.37,-71.02 2.34,-7.81 5.2,-16.39 6.5,-18.73 1.3,-2.6 2.34,-90.53 2.34,-199.79l0 -195.11 -72.84 0 -72.84 0 0 179.5c0,172.74 -0.26,179.76 -5.2,193.28 -12.49,33.04 -48.65,49.17 -85.85,37.99 -15.09,-4.43 -34.08,-23.15 -38.5,-37.72 -2.34,-8.07 -3.12,-56.71 -3.12,-191.99l0 -181.06 -72.84 0c-59.32,0 -73.36,0.78 -74.41,3.64l0 0z"/>
    <path class="fil7" d="M2279.41 3849.09c-17.92,9.29 -20.58,22.23 -19.25,87.3 0.99,62.08 3.31,69.38 24.23,76.35 16.93,5.65 32.86,1.67 42.82,-10.29 8.64,-9.96 8.64,-10.29 8.64,-73.03l0 -62.74 -8.97 -9.96c-11.95,-13.28 -30.87,-16.27 -47.47,-7.63zm24.57 19.58c4.65,1.66 5.31,10.3 5.31,61.09 0,56.76 -0.33,59.41 -6.64,61.41 -14.94,4.65 -16.6,-2 -16.6,-61.09 0,-61.41 1.66,-67.72 17.93,-61.41l0 0z"/>
    <path class="fil7" d="M2367.04 3848.75c-13.28,6.31 -17.92,16.93 -17.92,39.84 0,23.57 6.3,34.85 25.89,48.14 20.25,13.6 23.9,18.58 23.9,32.19 0,14.28 -5.31,23.9 -13.28,23.9 -8.3,0 -13.28,-9.62 -13.28,-24.56 0,-11.29 -0.66,-11.95 -11.62,-11.95l-11.61 0 0 19.59c0,16.59 1.33,20.58 8.63,27.88 10.62,10.96 26.89,14.27 42.49,8.96 17.92,-5.64 21.91,-13.94 21.91,-44.14 0,-25.24 -0.34,-26.57 -10.96,-36.52 -5.97,-5.98 -16.6,-14.95 -23.57,-19.92 -11.62,-8.97 -12.28,-10.29 -11.28,-26.56 0.66,-13.94 2.32,-17.59 7.3,-18.26 8.63,-1.66 15.27,7.97 15.27,21.58 0,10.29 0.66,10.96 11.62,10.96l11.62 0 0 -16.6c0,-19.92 -6.64,-31.21 -20.59,-36.18 -13.94,-4.98 -22.24,-4.33 -34.52,1.65l0 0z"/>
    <path class="fil7" d="M2913.46 3849.09c-17.93,9.29 -20.58,21.9 -19.26,88.96 0.66,35.52 2.66,59.09 4.99,63.41 8.62,14.93 34.51,17.93 48.46,5.64 4.98,-4.98 5.64,-4.98 5.64,0 0,3.65 2.66,5.64 8.3,5.64l8.3 0 0 -48.13 0 -48.13 -18.26 0 -18.25 0 0 11.61c0,9.3 1.32,11.62 6.63,11.62 5.98,0 6.64,2.32 6.64,21.24 0,21.59 -4.65,31.87 -14.6,31.87 -10.29,0 -11.95,-7.96 -11.95,-63.4 0,-59.09 1.66,-65.73 16.6,-61.08 5.3,1.66 6.63,4.98 6.63,16.93l0 14.61 13.28 0 13.28 0 0 -16.6c0,-13.28 -1.66,-18.59 -8.96,-26.56 -11.95,-13.28 -30.87,-16.27 -47.47,-7.63l0 0z"/>
    <path class="fil7" d="M2186.46 3858.38c0,10.62 0.66,11.62 9.95,11.62l9.97 0 0 71.37 0 71.37 11.61 0 11.62 0 0 -71.37 0 -71.37 9.96 0c9.3,0 9.96,-1 9.96,-11.62l0 -11.62 -31.54 0 -31.53 0 0 11.62z"/>
    <polygon class="fil7" points="2438.75,3929.76 2438.75,4012.74 2450.36,4012.74 2461.98,4012.74 2461.98,3976.22 2461.98,3939.71 2475.26,3939.71 2488.54,3939.71 2488.54,3976.22 2488.54,4012.74 2500.16,4012.74 2511.78,4012.74 2511.78,3929.76 2511.78,3846.76 2500.16,3846.76 2488.54,3846.76 2488.54,3881.62 2488.54,3916.47 2475.26,3916.47 2461.98,3916.47 2461.98,3881.62 2461.98,3846.76 2450.36,3846.76 2438.75,3846.76 "/>
    <path class="fil7" d="M2531.7 3929.76l0 82.98 11.62 0 11.62 0 0 -36.52c0,-28.21 0.99,-36.51 4.32,-36.51 2.65,0 6.3,5.64 8.29,12.28 2,6.98 6.65,23.58 10.63,36.52l6.97 24.23 14.6 0 14.61 0 -14.61 -43.15 -14.6 -43.16 13.27 -38.84c6.98,-21.24 12.95,-39.5 12.95,-40.16 0,-0.67 -6.3,-0.67 -13.94,0 -12.95,0.99 -13.94,1.66 -17.93,15.93 -2.32,8.3 -6.63,23.57 -9.62,33.86 -3.32,11.95 -7.3,19.25 -10.29,19.25 -3.66,0 -4.65,-6.97 -4.65,-34.85l0 -34.86 -11.62 0 -11.62 0 0 82.99 0 0.01z"/>
    <path class="fil7" d="M2624.65 3929.76l0 82.98 26.56 0 26.55 0 0 -11.28c0,-11.29 -0.33,-11.62 -13.94,-12.62l-14.28 -0.99 -0.99 -24.24 -0.99 -23.9 13.6 0c12.95,0 13.28,-0.33 13.28,-11.62 0,-11.28 -0.33,-11.62 -13.28,-11.62l-13.27 0 0 -23.23 0 -23.24 14.93 0c14.94,0 14.94,0 14.94,-11.62l0 -11.62 -26.55 0 -26.56 0 0 83z"/>
    <path class="fil7" d="M2694.36 3929.76l0 82.98 11.62 0 11.62 0 0 -55.44c0,-30.2 1,-54.44 1.99,-53.44 1,1 3.98,12.28 6.64,24.9 2.32,12.28 7.64,36.52 11.62,53.11l6.97 30.87 16.27 0 16.26 0 0 -82.98 0 -83 -13.28 0 -13.6 0 0.99 54.78c0.66,30.21 0.33,54.77 -0.67,54.77 -0.99,0 -5.97,-19.25 -10.95,-42.82 -15.27,-71.04 -13.61,-66.73 -30.54,-66.73l-14.94 0 0 83 0 0z"/>
    <path class="fil7" d="M2787.31 3858.38c0,10.62 0.66,11.62 9.96,11.62l9.96 0 0 71.37 0 71.37 11.62 0 11.61 0 0 -71.37 0 -71.37 9.96 0c9.3,0 9.96,-1 9.96,-11.62l0 -11.62 -31.53 0 -31.54 0 0 11.62z"/>
    <path class="fil7" d="M2989.82 3920.13c0,46.14 1.32,75.69 3.65,80 3.98,7.3 21.91,15.93 33.19,15.93 11.29,0 28.22,-9.62 32.54,-18.59 2.32,-5.3 3.65,-33.2 3.65,-79.34l0 -71.37 -13.28 0 -13.28 0 0 71.04c0,69.05 -0.33,71.37 -6.64,73.37 -15.27,4.97 -16.6,-1 -16.6,-75.03l0 -69.38 -11.61 0 -11.62 0 0 73.37 0 0z"/>
    <path class="fil7" d="M3079.45 3929.76l0 82.98 11.62 0 11.61 0 0 -68.05c0,-37.51 1.33,-68.05 2.66,-68.05 1.65,0 5.64,27.88 8.63,62.08 3.32,34.52 6.64,65.06 7.63,68.05 1,4.65 4.98,5.97 17.6,5.97l15.93 0 2 -15.93c0.99,-8.64 4.31,-39.51 7.3,-68.72 2.98,-29.21 5.97,-53.77 6.64,-54.44 0.66,-0.66 1.32,30.21 1.32,68.72l0 70.37 13.29 0 13.27 0 0 -82.98 0 -83 -23.24 0c-16.26,0 -23.23,1.33 -23.23,3.99 0,2.32 -2.33,25.89 -4.98,52.44 -2.66,26.57 -4.99,56.11 -4.99,65.41 0,9.62 -1.32,17.59 -3.31,17.59 -1.66,0 -3.32,-7.97 -3.32,-17.59 0,-9.3 -2.32,-38.19 -4.98,-63.74 -2.66,-25.57 -4.98,-49.14 -4.98,-52.46 0,-4.65 -3.32,-5.64 -23.24,-5.64l-23.23 0 0 82.99 0 0.01z"/>
    <path class="fil7" d="M3232.14 3848.09c0,0.66 -4.31,34.85 -9.95,76.02 -5.32,41.16 -9.97,78.01 -9.97,81.66 0,5.65 2,6.97 11.63,6.97 11.94,0 13.27,-1.99 15.59,-31.54 1,-8.29 2.66,-10.28 10.63,-10.95 11.62,-1.33 15.27,3.32 15.27,19.92 0,19.25 2.66,22.57 16.93,22.57 12.29,0 12.61,-0.33 11.29,-9.29 -1,-4.98 -5.31,-38.84 -9.96,-75.36 -11.29,-89.96 -7.97,-81.33 -31.54,-81.33 -10.95,0 -19.92,0.67 -19.92,1.33zm24.9 60.08c1.33,19.26 2.66,35.86 2.66,37.18 0.33,1.66 -3.66,2.99 -8.96,3.65 -8.3,1 -9.3,0.34 -7.64,-6.63 0.99,-4.32 2.99,-21.58 4.31,-38.51 1,-16.6 3.33,-30.54 4.65,-30.54 1.33,0 3.65,15.6 4.98,34.85l0 0z"/>
    <path class="fil7" d="M3305.18 3929.76l0 82.98 11.61 0 11.62 0 0 -55.44c0,-30.2 0.99,-54.44 1.99,-53.44 1,1 3.99,12.28 6.64,24.9 2.33,12.28 7.64,36.52 11.62,53.11l6.97 30.87 16.27 0 16.26 0 0 -82.98 0 -83 -13.27 0 -13.62 0 1 54.78c0.67,30.21 0.33,54.77 -0.66,54.77 -1,0 -5.98,-19.25 -10.96,-42.82 -15.27,-71.04 -13.61,-66.73 -30.54,-66.73l-14.93 0 0 83 0 0z"/>
    <polygon class="fil7" points="3408.09,3929.76 3408.09,4012.74 3419.71,4012.74 3431.33,4012.74 3431.33,3929.76 3431.33,3846.76 3419.71,3846.76 3408.09,3846.76 "/>
    <path class="fil7" d="M3444.6 3858.38c0,10.62 0.66,11.62 9.96,11.62l9.96 0 0 71.37 0 71.37 11.62 0 11.61 0 0 -71.37 0 -71.37 9.96 0c9.3,0 9.96,-1 9.96,-11.62l0 -11.62 -31.53 0 -31.54 0 0 11.62z"/>
    <path class="fil7" d="M3524.27 3848.09c0,0.66 -4.31,34.85 -9.96,76.02 -5.31,41.16 -9.96,78.01 -9.96,81.66 0,5.65 1.99,6.97 11.62,6.97 11.95,0 13.28,-1.99 15.6,-31.54 1,-8.29 2.66,-10.28 10.63,-10.95 11.62,-1.33 15.27,3.32 15.27,19.92 0,19.25 2.65,22.57 16.93,22.57 12.28,0 12.61,-0.33 11.28,-9.29 -0.99,-4.98 -5.31,-38.84 -9.96,-75.36 -11.28,-89.96 -7.96,-81.33 -31.53,-81.33 -10.96,0 -19.92,0.67 -19.92,1.33zm24.9 60.08c1.32,19.26 2.66,35.86 2.66,37.18 0.32,1.66 -3.66,2.99 -8.97,3.65 -8.3,1 -9.3,0.34 -7.63,-6.63 0.99,-4.32 2.98,-21.58 4.31,-38.51 0.99,-16.6 3.32,-30.54 4.65,-30.54 1.32,0 3.65,15.6 4.98,34.85l0 0z"/>
    <path class="fil7" d="M3600.62 3929.42l0 83.32 11.62 0 11.29 0 1 -32.19c0.99,-27.23 1.99,-32.54 6.63,-33.54 4.32,-0.99 6.97,5.32 12.95,32.21l7.3 33.52 12.95 0c6.97,0 12.62,-1 12.62,-1.99 0,-0.99 -3.65,-16.6 -8.3,-34.85l-8.3 -32.87 6.64 -6.64c5.64,-5.64 6.63,-10.96 6.63,-37.85 0,-28.54 -0.65,-32.52 -7.96,-40.82 -7.64,-8.63 -10.29,-9.3 -36.51,-10.62l-28.56 -1 0 83.32 0 0zm46.48 -53.11c1.66,3.65 3.32,13.94 3.32,23.23 0,18.59 -6.31,27.89 -17.93,26.23 -6.3,-0.99 -6.97,-3.32 -7.96,-28.55l-1 -27.22 9.96 0c6.64,0 11.29,2.32 13.61,6.31z"/>
    <path class="fil7" d="M3723.45 3929.76l0 82.98 11.62 0 11.62 0 0 -36.52 0 -36.51 13.27 0c12.95,0 13.28,-0.33 13.28,-11.62 0,-11.28 -0.33,-11.62 -13.28,-11.62l-13.27 0 0 -23.23 0 -23.24 14.93 0c14.94,0 14.94,0 14.94,-11.62l0 -11.62 -26.55 0 -26.56 0 0 83z"/>
    <path class="fil7" d="M3803.12 3848.09c0,0.66 -4.32,34.85 -9.96,76.02 -5.31,41.16 -9.96,78.01 -9.96,81.66 0,5.65 1.99,6.97 11.62,6.97 11.95,0 13.28,-1.99 15.6,-31.54 1,-8.29 2.66,-10.28 10.63,-10.95 11.62,-1.33 15.27,3.32 15.27,19.92 0,19.25 2.65,22.57 16.92,22.57 12.29,0 12.62,-0.33 11.3,-9.29 -1,-4.98 -5.32,-38.84 -9.97,-75.36 -11.28,-89.96 -7.96,-81.33 -31.53,-81.33 -10.96,0 -19.92,0.67 -19.92,1.33zm24.9 60.08c1.32,19.26 2.65,35.86 2.65,37.18 0.33,1.66 -3.65,2.99 -8.96,3.65 -8.3,1 -9.3,0.34 -7.64,-6.63 1,-4.32 2.99,-21.58 4.32,-38.51 0.99,-16.6 3.32,-30.54 4.65,-30.54 1.33,0 3.65,15.6 4.98,34.85l0 0z"/>
    <path class="fil7" d="M3876.16 3929.76l0 82.98 11.62 0 11.62 0 0 -55.44c0,-30.2 0.99,-54.44 1.98,-53.44 1,1 3.99,12.28 6.65,24.9 2.32,12.28 7.63,36.52 11.62,53.11l6.97 30.87 16.26 0 16.27 0 0 -82.98 0 -83 -13.28 0 -13.61 0 0.99 54.78c0.67,30.21 0.34,54.77 -0.65,54.77 -1.01,0 -5.98,-19.25 -10.96,-42.82 -15.27,-71.04 -13.61,-66.73 -30.54,-66.73l-14.94 0 0 83 0 0z"/>
    <path class="fil7" d="M3975.75 3929.76l0 82.98 26.56 0 26.55 0 0 -11.28c0,-11.29 -0.33,-11.62 -13.94,-12.62l-14.28 -0.99 -0.99 -70.72 -0.67 -70.37 -11.62 0 -11.61 0 0 83z"/>
    <path class="fil7" d="M4055.42 3848.09c0,0.66 -4.32,34.85 -9.96,76.02 -5.31,41.16 -9.96,78.01 -9.96,81.66 0,5.65 1.99,6.97 11.62,6.97 11.95,0 13.28,-1.99 15.6,-31.54 1,-8.29 2.66,-10.28 10.62,-10.95 11.63,-1.33 15.27,3.32 15.27,19.92 0,19.25 2.66,22.57 16.93,22.57 12.29,0 12.62,-0.33 11.29,-9.29 -1,-4.98 -5.31,-38.84 -9.96,-75.36 -11.28,-89.96 -7.96,-81.33 -31.53,-81.33 -10.96,0 -19.92,0.67 -19.92,1.33zm24.9 60.08c1.32,19.26 2.65,35.86 2.65,37.18 0.33,1.66 -3.65,2.99 -8.96,3.65 -8.3,1 -9.3,0.34 -7.64,-6.63 1,-4.32 2.99,-21.58 4.32,-38.51 1,-16.6 3.32,-30.54 4.65,-30.54 1.32,0 3.65,15.6 4.98,34.85l0 0z"/>
    <path class="fil7" d="M4128.45 3929.42l0 83.32 11.62 0 11.28 0 1 -32.19c1,-27.23 1.99,-32.54 6.64,-33.54 4.31,-0.99 6.97,5.32 12.95,32.21l7.3 33.52 12.95 0c6.97,0 12.61,-1 12.61,-1.99 0,-0.99 -3.66,-16.6 -8.3,-34.85l-8.3 -32.87 6.64 -6.64c5.64,-5.64 6.64,-10.96 6.64,-37.85 0,-28.54 -0.67,-32.52 -7.97,-40.82 -7.63,-8.63 -10.29,-9.3 -36.51,-10.62l-28.55 -1 0 83.32 0 0zm46.47 -53.11c1.66,3.65 3.33,13.94 3.33,23.23 0,18.59 -6.31,27.89 -17.93,26.23 -6.31,-0.99 -6.97,-3.32 -7.97,-28.55l-1 -27.22 9.96 0c6.64,0 11.29,2.32 13.61,6.31l0 0z"/>
    <path class="fil7" d="M2817.96 4196.11c0,46.14 1.33,75.69 3.65,80 3.98,7.3 21.91,15.94 33.2,15.94 11.28,0 28.21,-9.63 32.53,-18.59 2.32,-5.31 3.65,-33.2 3.65,-79.34l0 -71.38 -13.28 0 -13.28 0 0 71.04c0,69.06 -0.33,71.38 -6.64,73.37 -15.27,4.98 -16.6,-0.99 -16.6,-75.02l0 -69.39 -11.61 0 -11.62 0 0 73.37 0 0z"/>
    <path class="fil7" d="M2910.9 4205.74l0 82.99 11.62 0 11.62 0 0 -55.44c0,-30.21 1,-54.44 1.99,-53.45 1,1 3.99,12.29 6.64,24.9 2.32,12.28 7.64,36.52 11.62,53.11l6.97 30.88 16.27 0 16.27 0 0 -82.99 0 -83 -13.28 0 -13.61 0 0.99 54.78c0.66,30.21 0.34,54.77 -0.67,54.77 -0.99,0 -5.97,-19.25 -10.94,-42.82 -15.28,-71.04 -13.62,-66.73 -30.55,-66.73l-14.94 0 0 83 0 0z"/>
    <polygon class="fil7" points="3010.5,4205.74 3010.5,4288.73 3022.11,4288.73 3033.73,4288.73 3033.73,4205.74 3033.73,4122.74 3022.11,4122.74 3010.5,4122.74 "/>
    <path class="fil7" d="M3048.33 4135.03c1.99,12.61 18.59,148.72 18.59,152.03 0,1 8.97,1.67 19.92,1.67 19.59,0 19.59,0 21.58,-10.96 1.99,-12.61 18.26,-146.06 18.26,-151.38 0,-1.99 -5.65,-3.65 -12.95,-3.65l-12.62 0 -1.99 27.22c-4.64,57.1 -9.96,112.21 -11.28,111.21 -0.67,-0.66 -3.32,-25.89 -5.98,-55.77 -7.97,-88.96 -6.3,-82.66 -21.91,-82.66l-13.61 0 1.99 12.29 0 0z"/>
    <path class="fil7" d="M3143.28 4205.74l0 82.99 26.55 0 26.56 0 0 -11.29c0,-11.29 -0.33,-11.62 -13.94,-12.61l-14.28 -1 -1 -24.24 -0.99 -23.89 13.61 0c12.95,0 13.28,-0.34 13.28,-11.63 0,-11.28 -0.33,-11.62 -13.28,-11.62l-13.28 0 0 -23.23 0 -23.23 14.94 0c14.94,0 14.94,0 14.94,-11.63l0 -11.62 -26.56 0 -26.55 0 0 83z"/>
    <path class="fil7" d="M3209.67 4205.4l0 83.33 11.62 0 11.29 0 1 -32.2c0.99,-27.23 1.98,-32.54 6.64,-33.53 4.31,-1 6.97,5.31 12.94,32.2l7.3 33.53 12.94 0c6.97,0 12.63,-1 12.63,-2 0,-0.99 -3.66,-16.59 -8.29,-34.85l-8.32 -32.86 6.65 -6.65c5.65,-5.64 6.65,-10.95 6.65,-37.84 0,-28.54 -0.68,-32.53 -7.97,-40.83 -7.65,-8.63 -10.31,-9.3 -36.53,-10.62l-28.55 -1 0 83.32zm46.48 -53.11c1.67,3.65 3.31,13.94 3.31,23.24 0,18.59 -6.3,27.88 -17.93,26.22 -6.3,-0.99 -6.96,-3.32 -7.95,-28.54l-1 -27.22 9.95 0c6.65,0 11.3,2.32 13.62,6.3l0 0z"/>
    <path class="fil7" d="M3313.91 4124.74c-13.27,6.3 -17.92,16.92 -17.92,39.83 0,23.57 6.3,34.86 25.89,48.14 20.24,13.61 23.9,18.58 23.9,32.2 0,14.27 -5.3,23.9 -13.27,23.9 -8.32,0 -13.29,-9.63 -13.29,-24.57 0,-11.28 -0.65,-11.95 -11.61,-11.95l-11.62 0 0 19.59c0,16.6 1.32,20.58 8.64,27.88 10.6,10.96 26.88,14.27 42.47,8.97 17.93,-5.65 21.91,-13.95 21.91,-44.15 0,-25.23 -0.33,-26.56 -10.95,-36.52 -5.98,-5.98 -16.58,-14.94 -23.55,-19.92 -11.63,-8.96 -12.31,-10.29 -11.31,-26.56 0.67,-13.94 2.34,-17.59 7.32,-18.25 8.61,-1.67 15.26,7.96 15.26,21.58 0,10.29 0.67,10.95 11.63,10.95l11.6 0 0 -16.6c0,-19.92 -6.62,-31.2 -20.56,-36.18 -13.94,-4.98 -22.26,-4.32 -34.54,1.66l0 0z"/>
    <polygon class="fil7" points="3385.62,4205.74 3385.62,4288.73 3397.24,4288.73 3408.85,4288.73 3408.85,4205.74 3408.85,4122.74 3397.24,4122.74 3385.62,4122.74 "/>
    <path class="fil7" d="M3425.45 4134.36c0,10.63 0.67,11.63 9.96,11.63l9.96 0 0 71.36 0 71.38 11.63 0 11.6 0 0 -71.38 0 -71.36 9.96 0c9.31,0 9.96,-1.01 9.96,-11.63l0 -11.62 -31.52 0 -31.55 0 0 11.62z"/>
    <path class="fil7" d="M3498.48 4205.74l0 82.99 26.57 0 26.56 0 0 -11.29c0,-11.29 -0.35,-11.62 -13.94,-12.61l-14.29 -1 -1 -24.24 -1 -23.89 13.62 0c12.94,0 13.27,-0.34 13.27,-11.63 0,-11.28 -0.33,-11.62 -13.27,-11.62l-13.27 0 0 -23.23 0 -23.23 14.94 0c14.94,0 14.94,0 14.94,-11.63l0 -11.62 -26.57 0 -26.56 0 0 83 0 0z"/>
    <path class="fil7" d="M3564.88 4134.36c0,10.63 0.67,11.63 9.96,11.63l9.96 0 0 71.36 0 71.38 11.63 0 11.6 0 0 -71.38 0 -71.36 9.95 0c9.32,0 9.96,-1.01 9.96,-11.63l0 -11.62 -31.51 0 -31.55 0 0 11.62z"/>
    <polygon class="fil7" points="3637.9,4205.74 3637.9,4288.73 3649.53,4288.73 3661.16,4288.73 3661.16,4205.74 3661.16,4122.74 3649.53,4122.74 3637.9,4122.74 "/>
   </g>
  </g>
 </g>
</svg>
