<svg width="1170" height="607" viewBox="0 0 1170 607" fill="none" xmlns="http://www.w3.org/2000/svg">
<path d="M820.067 29.7333C787.267 46 760.467 59.7333 760.467 60.1333C760.334 60.5333 765.801 63.7333 772.334 67.2L784.334 73.4667V91.8667C784.334 107.2 783.934 110.667 782.201 112.133C780.734 113.333 780.334 115.2 780.734 118.667C781.134 121.2 781.001 126.667 780.334 130.667C779.267 138.667 780.067 140 785.667 140C791.934 140 792.734 138.533 791.267 129.2C790.467 123.6 790.467 119.867 791.267 118.267C792.201 116.4 791.934 115.067 789.801 112.8C787.267 110.133 787.001 108.267 787.001 92.9333C787.001 83.6 787.401 76 787.934 76C788.334 76 809.401 86 834.734 98.2667L880.601 120.533L940.467 90.5333C973.401 74.1333 1000.33 60.4 1000.33 60C1000.33 59.4667 883.001 1.06666 880.467 0.399993C880.067 0.266659 852.867 13.4667 820.067 29.7333Z" fill="#001143"/>
<path d="M404.333 7.33302C400.333 8.26635 395.133 9.19968 392.733 9.19968C387.267 9.33302 370.733 14.6664 361.533 19.333C337.4 31.4663 319.667 52.2663 311.533 77.9997C309.267 85.1997 309 90.3997 309 126.666V167.333H345.667H382.333L383 133.333C383.667 101.066 383.8 99.0663 386.867 92.933C392.067 82.133 402.6 76.133 416.333 75.9997C426.733 75.9997 433 78.133 439.267 83.733C449.533 92.933 450.2 96.133 451 134L451.667 167.333H488.333H525L525.4 134.666C525.667 113.466 525.267 97.9997 524.2 90.6663C522.2 77.1997 516.333 62.3997 507.8 49.5997C493.933 28.6663 467.4 13.1997 437.133 8.53302C418.333 5.59968 412.733 5.33302 404.333 7.33302Z" fill="#001143"/>
<path d="M76.5998 8.66666C75.3998 10.1333 74.9998 18.2667 75.2665 42.9333L75.6665 75.3333L112.333 76C132.466 76.4 149.133 76.9333 149.4 77.0667C149.533 77.2 149.666 97.7333 149.666 122.667V168H187H224.333V122.8C224.333 82.8 224.6 77.4667 226.466 76.8C227.666 76.4 243.666 76 262.2 76C286.6 76 296.2 75.6 297.4 74.4C299.8 72 299.533 12.1333 297.133 8.93333C295.533 6.79999 288.733 6.66666 186.866 6.66666C94.1998 6.79999 78.0665 7.06666 76.5998 8.66666Z" fill="#001143"/>
<path d="M575.665 17.6C575.265 18.5333 575.132 52.6667 575.265 93.3333L575.665 167.333L612.065 167.733L648.332 168L649.665 164.667C650.465 162.667 650.998 144.533 650.998 122.533V84L692.732 83.7333L734.332 83.3333V50V16.6667L655.265 16.2667C592.732 16 576.065 16.2667 575.665 17.6Z" fill="#001143"/>
<path d="M809.664 138.4V163.333L846.331 181.733L882.997 200L919.664 181.2L956.331 162.4V138.533C956.331 125.467 956.064 114.667 955.664 114.667C955.264 114.667 938.731 122.533 918.864 132.267L882.731 149.867L846.197 131.6L809.664 113.333V138.4Z" fill="#001143"/>
<path d="M151.665 200.266C151.265 201.2 151.132 262.266 151.265 336L151.665 470L188.732 470.4L225.665 470.667V334.666V198.666H188.998C160.865 198.666 152.065 199.066 151.665 200.266Z" fill="#001143"/>
<path d="M307.267 303.6L309.5 408L310.867 417.333C317.134 434.933 322.067 443.067 332.867 454.4C341.667 463.6 352.067 469.867 366.601 474.8C377.401 478.4 379.534 478.667 397.934 478.667C415.801 478.667 418.601 478.4 427.934 475.067C433.667 473.2 440.467 470.4 443.001 468.933C453.267 463.067 473 446.4 473 440C475.433 437.5 470.633 436.133 472.5 438C473.5 439 473.001 445.867 473.001 454.4V470H499.001H525.001V334.667V199.333H471.001H417.001L416.601 226C416.467 240.666 416.601 254 417.001 255.6C417.667 258.4 418.467 258.666 434.067 258.933L450.334 259.333L450.734 322C451.001 362 450.601 386.4 449.801 389.333C447.667 396.533 440.067 404.533 432.067 408C414.467 415.6 392.867 408.533 385.534 392.666C383.267 387.6 383.001 382 383.001 295.066C383.001 244.4 382.601 202 382.201 200.8C381.534 198.933 376.867 198.667 344.201 198.667H306.867L307.267 303.6Z" fill="#001143"/>
<path d="M573.664 334.666V470.667L611.397 470.4L648.997 470L649.664 366L650.331 262L687.664 261.333L724.997 260.666V230V199.333L649.397 198.933L573.664 198.666V334.666Z" fill="#001143"/>
<path d="M770.198 200.533C769.798 201.466 769.665 246.266 769.932 300.133L771.5 398L773.798 408.933C780.198 429.2 793.932 448.266 809.932 458.933C823.532 467.866 830.332 471.066 845.665 475.466C856.865 478.666 858.998 478.8 881.932 478.4C905.532 478 906.732 477.733 919.532 473.466C935.932 467.733 953.532 457.066 962.598 447.066C970.865 438 980.865 420.8 983.798 410.666C984.998 406.666 986.465 402.266 987.132 401.066C987.798 399.733 988.332 354.666 988.332 298.666V198.666H950.998H913.665V290.666C913.665 379.2 913.532 382.8 910.998 389.733C904.598 406.666 886.065 414.933 866.998 409.2C859.265 406.933 849.532 397.333 847.265 389.866C846.065 385.733 845.665 360.8 845.665 291.466V198.666H808.332C777.932 198.666 770.732 199.066 770.198 200.533Z" fill="#001143"/>
<path d="M37.6672 539.6C30.4672 543.333 29.4006 548.533 29.9339 574.666C30.3339 599.6 31.2672 602.533 39.6672 605.333C46.4672 607.6 52.8672 606 56.8672 601.2C60.3339 597.2 60.3339 597.066 60.3339 571.866V546.666L56.7339 542.666C51.9339 537.333 44.3339 536.133 37.6672 539.6ZM47.5339 547.466C49.4006 548.133 49.6672 551.6 49.6672 572C49.6672 594.8 49.5339 595.866 47.0006 596.666C41.0006 598.533 40.3339 595.866 40.3339 572.133C40.3339 547.466 41.0006 544.933 47.5339 547.466Z" fill="#001143"/>
<path d="M72.8641 539.466C67.5307 542 65.6641 546.266 65.6641 555.466C65.6641 564.933 68.1974 569.466 76.0641 574.8C84.1974 580.266 85.6641 582.266 85.6641 587.733C85.6641 593.466 83.5307 597.333 80.3307 597.333C76.9974 597.333 74.9974 593.466 74.9974 587.466C74.9974 582.933 74.7307 582.666 70.3307 582.666H65.6641V590.533C65.6641 597.2 66.1974 598.8 69.1307 601.733C73.3974 606.133 79.9307 607.466 86.1974 605.333C93.3974 603.066 94.9974 599.733 94.9974 587.6C94.9974 577.466 94.8641 576.933 90.5974 572.933C88.1974 570.533 83.9307 566.933 81.1307 564.933C76.4641 561.333 76.1974 560.8 76.5974 554.266C76.8641 548.666 77.5307 547.2 79.5307 546.933C82.9974 546.266 85.6641 550.133 85.6641 555.6C85.6641 559.733 85.9307 560 90.3307 560H94.9974V553.333C94.9974 545.333 92.3307 540.8 86.7307 538.8C81.1307 536.8 77.7974 537.066 72.8641 539.466Z" fill="#001143"/>
<path d="M292.331 539.6C285.131 543.333 284.065 548.4 284.598 575.333C284.865 589.6 285.665 599.067 286.598 600.8C290.065 606.8 300.465 608 306.065 603.067C308.065 601.067 308.331 601.067 308.331 603.067C308.331 604.533 309.398 605.333 311.665 605.333H314.998V586V566.667H307.665H300.331V571.333C300.331 575.067 300.865 576 302.998 576C305.398 576 305.665 576.933 305.665 584.533C305.665 593.2 303.798 597.333 299.798 597.333C295.665 597.333 294.998 594.133 294.998 571.867C294.998 548.133 295.665 545.467 301.665 547.333C303.798 548 304.331 549.333 304.331 554.133V560H309.665H314.998V553.333C314.998 548 314.331 545.867 311.398 542.667C306.598 537.333 298.998 536.133 292.331 539.6Z" fill="#001143"/>
<path d="M1030.2 539.466C1024.87 542 1023 546.266 1023 555.466C1023 564.933 1025.53 569.466 1033.4 574.8C1041.53 580.266 1043 582.266 1043 587.733C1043 593.466 1040.87 597.333 1037.67 597.333C1034.33 597.333 1032.33 593.466 1032.33 587.466C1032.33 582.933 1032.07 582.666 1027.67 582.666H1023V590.533C1023 597.2 1023.53 598.8 1026.47 601.733C1030.73 606.133 1037.27 607.466 1043.53 605.333C1050.73 603.066 1052.33 599.733 1052.33 587.6C1052.33 577.466 1052.2 576.933 1047.93 572.933C1045.53 570.533 1041.27 566.933 1038.47 564.933C1033.8 561.333 1033.53 560.8 1033.93 554.266C1034.2 548.666 1034.87 547.2 1036.87 546.933C1040.33 546.266 1043 550.133 1043 555.6C1043 559.733 1043.27 560 1047.67 560H1052.33V553.333C1052.33 545.333 1049.67 540.8 1044.07 538.8C1038.47 536.8 1035.13 537.066 1030.2 539.466Z" fill="#001143"/>
<path d="M0.332031 543.333C0.332031 547.6 0.598698 548 4.33203 548H8.33203V576.666V605.333H12.9987H17.6654V576.666V548H21.6654C25.3987 548 25.6654 547.6 25.6654 543.333V538.666H12.9987H0.332031V543.333Z" fill="#001143"/>
<path d="M101.664 572V605.333H106.331H110.997V590.666V576H116.331H121.664V590.666V605.333H126.331H130.997V572V538.666H126.331H121.664V552.666V566.666H116.331H110.997V552.666V538.666H106.331H101.664V572Z" fill="#001143"/>
<path d="M139 572V605.333H143.667H148.333V590.666C148.333 579.333 148.733 576 150.067 576C151.133 576 152.6 578.266 153.4 580.933C154.2 583.733 156.067 590.4 157.667 595.6L160.467 605.333H166.333H172.2L166.333 588L160.467 570.666L165.8 555.066C168.6 546.533 171 539.2 171 538.933C171 538.666 168.467 538.666 165.4 538.933C160.2 539.333 159.8 539.6 158.2 545.333C157.267 548.666 155.533 554.8 154.333 558.933C153 563.733 151.4 566.666 150.2 566.666C148.733 566.666 148.333 563.866 148.333 552.666V538.666H143.667H139V572Z" fill="#001143"/>
<path d="M176.332 572V605.333H186.999H197.665V600.8C197.665 596.266 197.532 596.133 192.065 595.733L186.332 595.333L185.932 585.6L185.532 576H190.999C196.199 576 196.332 575.866 196.332 571.333C196.332 566.8 196.199 566.666 190.999 566.666H185.665V557.333V548H191.665C197.665 548 197.665 548 197.665 543.333V538.666H186.999H176.332V572Z" fill="#001143"/>
<path d="M204.332 572V605.333H208.999H213.665V583.066C213.665 570.933 214.065 561.2 214.465 561.6C214.865 562 216.065 566.533 217.132 571.6C218.065 576.533 220.199 586.266 221.799 592.933L224.599 605.333H231.132H237.665V572V538.666H232.332H226.865L227.265 560.666C227.532 572.8 227.399 582.666 226.999 582.666C226.599 582.666 224.599 574.933 222.599 565.466C216.465 536.933 217.132 538.666 210.332 538.666H204.332V572Z" fill="#001143"/>
<path d="M241.664 543.333C241.664 547.6 241.931 548 245.664 548H249.664V576.666V605.333H254.331H258.997V576.666V548H262.997C266.731 548 266.997 547.6 266.997 543.333V538.666H254.331H241.664V543.333Z" fill="#001143"/>
<path d="M323 568.133C323 586.667 323.533 598.533 324.467 600.267C326.067 603.2 333.267 606.667 337.8 606.667C342.333 606.667 349.133 602.8 350.867 599.2C351.8 597.067 352.333 585.867 352.333 567.333V538.667H347H341.667V567.2C341.667 594.933 341.533 595.867 339 596.667C332.867 598.667 332.333 596.267 332.333 566.533V538.667H327.667H323V568.133Z" fill="#001143"/>
<path d="M359 572V605.333H363.667H368.333V578C368.333 562.933 368.867 550.666 369.4 550.666C370.067 550.666 371.667 561.866 372.867 575.6C374.2 589.466 375.533 601.733 375.933 602.933C376.333 604.8 377.933 605.333 383 605.333H389.4L390.2 598.933C390.6 595.466 391.933 583.066 393.133 571.333C394.333 559.6 395.533 549.733 395.8 549.466C396.067 549.2 396.333 561.6 396.333 577.066V605.333H401.667H407V572V538.666H397.667C391.133 538.666 388.333 539.2 388.333 540.266C388.333 541.2 387.4 550.666 386.333 561.333C385.267 572 384.333 583.866 384.333 587.6C384.333 591.466 383.8 594.666 383 594.666C382.333 594.666 381.667 591.466 381.667 587.6C381.667 583.866 380.733 572.266 379.667 562C378.6 551.733 377.667 542.266 377.667 540.933C377.667 539.066 376.333 538.666 368.333 538.666H359V572Z" fill="#001143"/>
<path d="M420.332 539.2C420.332 539.466 418.599 553.2 416.332 569.733C414.199 586.266 412.332 601.066 412.332 602.533C412.332 604.8 413.132 605.333 416.999 605.333C421.799 605.333 422.332 604.533 423.265 592.666C423.665 589.333 424.332 588.533 427.532 588.266C432.199 587.733 433.665 589.6 433.665 596.266C433.665 604 434.732 605.333 440.465 605.333C445.399 605.333 445.532 605.2 444.999 601.6C444.599 599.6 442.865 586 440.999 571.333C436.465 535.2 437.799 538.666 428.332 538.666C423.932 538.666 420.332 538.933 420.332 539.2ZM430.332 563.333C430.865 571.066 431.399 577.733 431.399 578.266C431.532 578.933 429.932 579.466 427.799 579.733C424.465 580.133 424.065 579.866 424.732 577.066C425.132 575.333 425.932 568.4 426.465 561.6C426.865 554.933 427.799 549.333 428.332 549.333C428.865 549.333 429.799 555.6 430.332 563.333Z" fill="#001143"/>
<path d="M449.664 572V605.333H454.331H458.997V583.066C458.997 570.933 459.397 561.2 459.797 561.6C460.197 562 461.397 566.533 462.464 571.6C463.397 576.533 465.531 586.266 467.131 592.933L469.931 605.333H476.464H482.997V572V538.666H477.664H472.197L472.597 560.666C472.864 572.8 472.731 582.666 472.331 582.666C471.931 582.666 469.931 574.933 467.931 565.466C461.797 536.933 462.464 538.666 455.664 538.666H449.664V572Z" fill="#001143"/>
<path d="M491 572V605.333H495.667H500.333V572V538.666H495.667H491V572Z" fill="#001143"/>
<path d="M505.664 543.333C505.664 547.6 505.931 548 509.664 548H513.664V576.666V605.333H518.331H522.997V576.666V548H526.997C530.731 548 530.997 547.6 530.997 543.333V538.666H518.331H505.664V543.333Z" fill="#001143"/>
<path d="M537.664 539.2C537.664 539.466 535.931 553.2 533.664 569.733C531.531 586.266 529.664 601.066 529.664 602.533C529.664 604.8 530.464 605.333 534.331 605.333C539.131 605.333 539.664 604.533 540.597 592.666C540.997 589.333 541.664 588.533 544.864 588.266C549.531 587.733 550.997 589.6 550.997 596.266C550.997 604 552.064 605.333 557.797 605.333C562.731 605.333 562.864 605.2 562.331 601.6C561.931 599.6 560.197 586 558.331 571.333C553.797 535.2 555.131 538.666 545.664 538.666C541.264 538.666 537.664 538.933 537.664 539.2ZM547.664 563.333C548.197 571.066 548.731 577.733 548.731 578.266C548.864 578.933 547.264 579.466 545.131 579.733C541.797 580.133 541.397 579.866 542.064 577.066C542.464 575.333 543.264 568.4 543.797 561.6C544.197 554.933 545.131 549.333 545.664 549.333C546.197 549.333 547.131 555.6 547.664 563.333Z" fill="#001143"/>
<path d="M568.332 571.866V605.333H572.999H577.532L577.932 592.4C578.332 581.466 578.732 579.333 580.599 578.933C582.332 578.533 583.399 581.066 585.799 591.866L588.732 605.333H593.932C596.732 605.333 598.999 604.933 598.999 604.533C598.999 604.133 597.532 597.866 595.665 590.533L592.332 577.333L594.999 574.666C597.265 572.4 597.665 570.266 597.665 559.466C597.665 548 597.399 546.4 594.465 543.066C591.399 539.6 590.332 539.333 579.799 538.8L568.332 538.4V571.866ZM586.999 550.533C587.665 552 588.332 556.133 588.332 559.866C588.332 567.333 585.799 571.066 581.132 570.4C578.599 570 578.332 569.066 577.932 558.933L577.532 548H581.532C584.199 548 586.065 548.933 586.999 550.533Z" fill="#001143"/>
<path d="M617.664 572V605.333H622.331H626.997V590.666V576H632.331C637.531 576 637.664 575.866 637.664 571.333C637.664 566.8 637.531 566.666 632.331 566.666H626.997V557.333V548H632.997C638.997 548 638.997 548 638.997 543.333V538.666H628.331H617.664V572Z" fill="#001143"/>
<path d="M649.664 539.2C649.664 539.466 647.931 553.2 645.664 569.733C643.531 586.266 641.664 601.066 641.664 602.533C641.664 604.8 642.464 605.333 646.331 605.333C651.131 605.333 651.664 604.533 652.597 592.666C652.997 589.333 653.664 588.533 656.864 588.266C661.531 587.733 662.997 589.6 662.997 596.266C662.997 604 664.064 605.333 669.797 605.333C674.731 605.333 674.864 605.2 674.331 601.6C673.931 599.6 672.197 586 670.331 571.333C665.797 535.2 667.131 538.666 657.664 538.666C653.264 538.666 649.664 538.933 649.664 539.2ZM659.664 563.333C660.197 571.066 660.731 577.733 660.731 578.266C660.864 578.933 659.264 579.466 657.131 579.733C653.797 580.133 653.397 579.866 654.064 577.066C654.464 575.333 655.264 568.4 655.797 561.6C656.197 554.933 657.131 549.333 657.664 549.333C658.197 549.333 659.131 555.6 659.664 563.333Z" fill="#001143"/>
<path d="M679 572V605.333H683.667H688.333V583.066C688.333 570.933 688.733 561.2 689.133 561.6C689.533 562 690.733 566.533 691.8 571.6C692.733 576.533 694.867 586.266 696.467 592.933L699.267 605.333H705.8H712.333V572V538.666H707H701.533L701.933 560.666C702.2 572.8 702.067 582.666 701.667 582.666C701.267 582.666 699.267 574.933 697.267 565.466C691.133 536.933 691.8 538.666 685 538.666H679V572Z" fill="#001143"/>
<path d="M719 572V605.333H729.667H740.333V600.8C740.333 596.266 740.2 596.133 734.733 595.733L729 595.333L728.6 566.933L728.333 538.666H723.667H719V572Z" fill="#001143"/>
<path d="M751 539.2C751 539.466 749.267 553.2 747 569.733C744.867 586.266 743 601.066 743 602.533C743 604.8 743.8 605.333 747.667 605.333C752.467 605.333 753 604.533 753.933 592.666C754.333 589.333 755 588.533 758.2 588.266C762.867 587.733 764.333 589.6 764.333 596.266C764.333 604 765.4 605.333 771.133 605.333C776.067 605.333 776.2 605.2 775.667 601.6C775.267 599.6 773.533 586 771.667 571.333C767.133 535.2 768.467 538.666 759 538.666C754.6 538.666 751 538.933 751 539.2ZM761 563.333C761.533 571.066 762.067 577.733 762.067 578.266C762.2 578.933 760.6 579.466 758.467 579.733C755.133 580.133 754.733 579.866 755.4 577.066C755.8 575.333 756.6 568.4 757.133 561.6C757.533 554.933 758.467 549.333 759 549.333C759.533 549.333 760.467 555.6 761 563.333Z" fill="#001143"/>
<path d="M780.332 571.866V605.333H784.999H789.532L789.932 592.4C790.332 581.466 790.732 579.333 792.599 578.933C794.332 578.533 795.399 581.066 797.799 591.866L800.732 605.333H805.932C808.732 605.333 810.999 604.933 810.999 604.533C810.999 604.133 809.532 597.866 807.665 590.533L804.332 577.333L806.999 574.666C809.265 572.4 809.665 570.266 809.665 559.466C809.665 548 809.399 546.4 806.465 543.066C803.399 539.6 802.332 539.333 791.799 538.8L780.332 538.4V571.866ZM798.999 550.533C799.665 552 800.332 556.133 800.332 559.866C800.332 567.333 797.799 571.066 793.132 570.4C790.599 570 790.332 569.066 789.932 558.933L789.532 548H793.532C796.199 548 798.065 548.933 798.999 550.533Z" fill="#001143"/>
<path d="M831 568.133C831 586.667 831.533 598.533 832.467 600.267C834.067 603.2 841.267 606.667 845.8 606.667C850.333 606.667 857.133 602.8 858.867 599.2C859.8 597.067 860.333 585.867 860.333 567.333V538.667H855H849.667V567.2C849.667 594.933 849.533 595.867 847 596.667C840.867 598.667 840.333 596.267 840.333 566.533V538.667H835.667H831V568.133Z" fill="#001143"/>
<path d="M868.332 572V605.333H872.999H877.665V583.066C877.665 570.933 878.065 561.2 878.465 561.6C878.865 562 880.065 566.533 881.132 571.6C882.065 576.533 884.199 586.266 885.799 592.933L888.599 605.333H895.132H901.665V572V538.666H896.332H890.865L891.265 560.666C891.532 572.8 891.399 582.666 890.999 582.666C890.599 582.666 888.599 574.933 886.599 565.466C880.465 536.933 881.132 538.666 874.332 538.666H868.332V572Z" fill="#001143"/>
<path d="M908.332 572V605.333H912.999H917.665V572V538.666H912.999H908.332V572Z" fill="#001143"/>
<path d="M923.53 543.6C924.33 548.666 930.997 603.333 930.997 604.666C930.997 605.066 934.597 605.333 938.997 605.333C946.864 605.333 946.864 605.333 947.664 600.933C948.464 595.866 954.997 542.266 954.997 540.133C954.997 539.333 952.73 538.666 949.797 538.666H944.73L943.93 549.6C942.064 572.533 939.93 594.666 939.397 594.266C939.13 594 938.064 583.866 936.997 571.866C933.797 536.133 934.464 538.666 928.197 538.666H922.73L923.53 543.6Z" fill="#001143"/>
<path d="M961.664 572V605.333H972.331H982.997V600.8C982.997 596.266 982.864 596.133 977.397 595.733L971.664 595.333L971.264 585.6L970.864 576H976.331C981.531 576 981.664 575.866 981.664 571.333C981.664 566.8 981.531 566.666 976.331 566.666H970.997V557.333V548H976.997C982.997 548 982.997 548 982.997 543.333V538.666H972.331H961.664V572Z" fill="#001143"/>
<path d="M988.332 571.866V605.333H992.999H997.532L997.932 592.4C998.332 581.466 998.732 579.333 1000.6 578.933C1002.33 578.533 1003.4 581.066 1005.8 591.866L1008.73 605.333H1013.93C1016.73 605.333 1019 604.933 1019 604.533C1019 604.133 1017.53 597.866 1015.67 590.533L1012.33 577.333L1015 574.666C1017.27 572.4 1017.67 570.266 1017.67 559.466C1017.67 548 1017.4 546.4 1014.47 543.066C1011.4 539.6 1010.33 539.333 999.799 538.8L988.332 538.4V571.866ZM1007 550.533C1007.67 552 1008.33 556.133 1008.33 559.866C1008.33 567.333 1005.8 571.066 1001.13 570.4C998.599 570 998.332 569.066 997.932 558.933L997.532 548H1001.53C1004.2 548 1006.07 548.933 1007 550.533Z" fill="#001143"/>
<path d="M1059 572V605.333H1063.67H1068.33V572V538.666H1063.67H1059V572Z" fill="#001143"/>
<path d="M1075 543.333C1075 547.6 1075.27 548 1079 548H1083V576.666V605.333H1087.67H1092.33V576.666V548H1096.33C1100.07 548 1100.33 547.6 1100.33 543.333V538.666H1087.67H1075V543.333Z" fill="#001143"/>
<path d="M1104.33 572V605.333H1115H1125.67V600.8C1125.67 596.266 1125.53 596.133 1120.07 595.733L1114.33 595.333L1113.93 585.6L1113.53 576H1119C1124.2 576 1124.33 575.866 1124.33 571.333C1124.33 566.8 1124.2 566.666 1119 566.666H1113.67V557.333V548H1119.67C1125.67 548 1125.67 548 1125.67 543.333V538.666H1115H1104.33V572Z" fill="#001143"/>
<path d="M1131 543.333C1131 547.6 1131.27 548 1135 548H1139V576.666V605.333H1143.67H1148.33V576.666V548H1152.33C1156.07 548 1156.33 547.6 1156.33 543.333V538.666H1143.67H1131V543.333Z" fill="#001143"/>
<path d="M1160.33 572V605.333H1165H1169.67V572V538.666H1165H1160.33V572Z" fill="#001143"/>
</svg>
