<?xml version="1.0" encoding="UTF-8"?>
<!DOCTYPE svg PUBLIC "-//W3C//DTD SVG 1.1//EN" "http://www.w3.org/Graphics/SVG/1.1/DTD/svg11.dtd">
<!-- Creator: CorelDRAW 2020 (64-Bit) -->
<svg xmlns="http://www.w3.org/2000/svg" xml:space="preserve" width="3654px" height="1895px" version="1.1" style="shape-rendering:geometricPrecision; text-rendering:geometricPrecision; image-rendering:optimizeQuality; fill-rule:evenodd; clip-rule:evenodd"
viewBox="0 0 4426.92 2295.23"
 xmlns:xlink="http://www.w3.org/1999/xlink"
 xmlns:xodm="http://www.corel.com/coreldraw/odm/2003">
 <defs>
  <style type="text/css">
   <![CDATA[
    .fil0 {fill:#FEFEFE;fill-rule:nonzero}
   ]]>
  </style>
 </defs>
 <g id="Слой_x0020_1">
  <metadata id="CorelCorpID_0Corel-Layer"/>
  <g id="_2493836607168">
   <path class="fil0" d="M3103.38 111.06c-124.18,61.58 -225.64,113.57 -225.64,115.08 -0.5,1.52 20.2,13.63 44.93,26.76l45.43 23.72 0 69.66c0,58.05 -1.52,71.18 -8.08,76.73 -5.55,4.54 -7.06,11.61 -5.55,24.73 1.51,9.59 1.01,30.29 -1.51,45.43 -4.04,30.29 -1.01,35.34 20.19,35.34 23.72,0 26.75,-5.56 21.2,-40.89 -3.03,-21.2 -3.03,-35.33 0,-41.39 3.53,-7.07 2.52,-12.12 -5.55,-20.7 -9.6,-10.1 -10.6,-17.16 -10.6,-75.21 0,-35.33 1.51,-64.11 3.53,-64.11 1.51,0 81.27,37.86 177.18,84.3l173.64 84.3 226.64 -113.58c124.69,-62.08 226.63,-114.08 226.63,-115.59 0,-2.02 -444.18,-223.11 -453.78,-225.64 -1.51,-0.5 -104.49,49.47 -228.66,111.06z"/>
   <path class="fil0" d="M1529.48 26.25c-15.14,3.53 -34.83,7.07 -43.91,7.07 -20.7,0.5 -83.29,20.69 -118.12,38.36 -91.37,45.94 -158.5,124.68 -189.29,222.1 -8.58,27.26 -9.59,46.95 -9.59,184.25l0 153.95 138.81 0 138.81 0 2.53 -128.71c2.52,-122.16 3.03,-129.73 14.64,-152.95 19.68,-40.89 59.56,-63.6 111.55,-64.11 39.37,0 63.1,8.08 86.82,29.28 38.87,34.83 41.4,46.94 44.42,190.3l2.53 126.19 138.81 0 138.82 0 1.51 -123.67c1.01,-80.26 -0.5,-138.81 -4.54,-166.57 -7.57,-50.99 -29.79,-107.01 -62.09,-155.47 -52.5,-79.25 -152.95,-137.81 -267.53,-155.47 -71.18,-11.11 -92.38,-12.12 -124.18,-4.55z"/>
   <path class="fil0" d="M288.74 31.3c-4.55,5.55 -6.06,36.34 -5.05,129.73l1.51 122.66 138.82 2.52c76.22,1.52 139.32,3.54 140.33,4.04 0.5,0.51 1,78.24 1,172.64l0 171.62 141.34 0 141.34 0 0 -171.12c0,-151.43 1.01,-171.62 8.08,-174.15 4.54,-1.51 65.11,-3.03 135.28,-3.03 92.37,0 128.72,-1.51 133.26,-6.05 9.09,-9.09 8.08,-235.74 -1.01,-247.85 -6.06,-8.08 -31.8,-8.58 -417.45,-8.58 -350.82,0.5 -411.9,1.51 -417.45,7.57z"/>
   <path class="fil0" d="M2178.11 65.12c-1.51,3.53 -2.01,132.76 -1.51,286.71l1.51 280.15 137.81 1.52 137.3 1.01 5.05 -12.62c3.02,-7.57 5.04,-76.22 5.04,-159.51l0 -145.88 158 -1.01 157.49 -1.51 0 -126.2 0 -126.19 -299.34 -1.52c-236.73,-1.01 -299.83,0 -301.35,5.05z"/>
   <path class="fil0" d="M3064 522.45l0 94.39 138.81 69.66 138.81 69.16 138.82 -71.18 138.81 -71.17 0 -90.36c0,-49.46 -1.01,-90.35 -2.52,-90.35 -1.52,0 -64.11,29.78 -139.32,66.63l-136.8 66.63 -138.31 -69.15 -138.3 -69.16 0 94.9z"/>
   <path class="fil0" d="M572.92 756.66c-1.51,3.54 -2.02,234.73 -1.51,513.87l1.51 507.3 140.33 1.52 139.82 1.01 0 -514.88 0 -514.87 -138.81 0c-106.51,0 -139.82,1.51 -141.34,6.05z"/>
   <path class="fil0" d="M1162 1147.87l8.46 395.24 5.17 35.33c23.73,66.63 42.4,97.43 83.29,140.33 33.32,34.83 72.69,58.56 127.71,77.23 40.89,13.63 48.97,14.64 118.63,14.64 67.64,0 78.24,-1.01 113.57,-13.63 21.7,-7.06 47.45,-17.66 57.04,-23.22 38.87,-22.21 113.57,-85.3 113.57,-109.53 9.21,-9.47 -8.96,-14.64 -1.89,-7.57 3.79,3.78 1.9,29.78 1.9,62.08l0 59.06 98.43 0 98.43 0 0 -512.35 0 -512.35 -204.44 0 -204.43 0 -1.52 100.96c-0.5,55.52 0,106 1.52,112.06 2.52,10.6 5.55,11.61 64.61,12.62l61.58 1.51 1.52 237.25c1.01,151.43 -0.51,243.81 -3.54,254.91 -8.07,27.26 -36.85,57.54 -67.13,70.67 -66.63,28.77 -148.41,2.02 -176.17,-58.05 -8.58,-19.18 -9.59,-40.38 -9.59,-369.5 0,-191.81 -1.51,-352.33 -3.03,-356.87 -2.52,-7.07 -20.19,-8.08 -143.86,-8.08l-141.34 0 1.51 397.26z"/>
   <polygon class="fil0" points="2170.54,1265.48 2170.54,1780.36 2313.39,1779.35 2455.74,1777.83 2458.26,1384.11 2460.79,990.38 2602.12,987.85 2743.46,985.33 2743.46,869.23 2743.46,753.13 2457.25,751.62 2170.54,750.61 "/>
   <path class="fil0" d="M2914.58 757.67c-1.51,3.54 -2.01,173.14 -1,377.07l5.93 370.51 8.7 41.39c24.23,76.73 76.23,148.91 136.8,189.29 51.49,33.82 77.23,45.94 135.28,62.59 42.4,12.12 50.47,12.63 137.3,11.11 89.34,-1.51 93.89,-2.52 142.35,-18.68 62.08,-21.7 128.71,-62.08 163.04,-99.94 31.29,-34.32 69.15,-99.44 80.26,-137.81 4.54,-15.14 10.09,-31.8 12.62,-36.34 2.52,-5.05 4.54,-175.66 4.54,-387.67l0 -378.58 -141.34 0 -141.33 0 0 348.29c0,335.18 -0.51,348.81 -10.1,375.05 -24.23,64.11 -94.39,95.41 -166.58,73.7 -29.28,-8.58 -66.12,-44.92 -74.71,-73.19 -4.54,-15.65 -6.05,-110.04 -6.05,-372.53l0 -351.32 -141.34 0c-115.09,0 -142.35,1.51 -144.37,7.06z"/>
   <path class="fil0" d="M141.35 2041.33c-27.26,14.13 -31.3,33.81 -29.28,132.75 1.51,94.4 5.04,105.5 36.85,116.1 25.74,8.58 49.97,2.53 65.11,-15.65 13.13,-15.14 13.13,-15.65 13.13,-111.05l0 -95.4 -13.63 -15.15c-18.17,-20.19 -46.95,-24.73 -72.18,-11.6zm37.35 29.77c7.07,2.53 8.08,15.66 8.08,92.89 0,86.31 -0.51,90.35 -10.1,93.38 -22.72,7.07 -25.24,-3.03 -25.24,-92.88 0,-93.39 2.52,-102.98 27.26,-93.39z"/>
   <path class="fil0" d="M274.59 2040.82c-20.19,9.59 -27.25,25.74 -27.25,60.57 0,35.84 9.59,53 39.37,73.2 30.79,20.69 36.34,28.26 36.34,48.96 0,21.7 -8.07,36.34 -20.19,36.34 -12.62,0 -20.19,-14.64 -20.19,-37.35 0,-17.16 -1.01,-18.17 -17.67,-18.17l-17.66 0 0 29.78c0,25.24 2.02,31.3 13.12,42.4 16.15,16.66 40.89,21.7 64.61,13.63 27.26,-8.58 33.32,-21.2 33.32,-67.13 0,-38.37 -0.51,-40.39 -16.66,-55.53 -9.09,-9.09 -25.24,-22.72 -35.84,-30.29 -17.67,-13.63 -18.68,-15.64 -17.16,-40.38 1.01,-21.2 3.53,-26.75 11.1,-27.76 13.13,-2.53 23.22,12.11 23.22,32.81 0,15.65 1.01,16.66 17.67,16.66l17.67 0 0 -25.24c0,-30.29 -10.1,-47.45 -31.3,-55.02 -21.2,-7.57 -33.82,-6.57 -52.5,2.52z"/>
   <path class="fil0" d="M1105.46 2041.33c-27.26,14.13 -31.29,33.31 -29.28,135.27 1.01,54.02 4.04,89.86 7.58,96.42 13.12,22.71 52.49,27.26 73.69,8.58 7.58,-7.57 8.58,-7.57 8.58,0 0,5.55 4.04,8.58 12.62,8.58l12.62 0 0 -73.19 0 -73.19 -27.76 0 -27.76 0 0 17.66c0,14.14 2.02,17.67 10.09,17.67 9.09,0 10.1,3.53 10.1,32.3 0,32.82 -7.07,48.46 -22.21,48.46 -15.65,0 -18.17,-12.11 -18.17,-96.41 0,-89.85 2.52,-99.94 25.24,-92.88 8.07,2.53 10.09,7.57 10.09,25.74l0 22.22 20.19 0 20.19 0 0 -25.24c0,-20.19 -2.52,-28.27 -13.63,-40.38 -18.17,-20.2 -46.94,-24.74 -72.18,-11.61z"/>
   <path class="fil0" d="M3898.91 2040.82c-20.18,9.59 -27.26,25.74 -27.26,60.57 0,35.84 9.58,53 39.37,73.2 30.78,20.69 36.35,28.26 36.35,48.96 0,21.7 -8.07,36.34 -20.18,36.34 -12.65,0 -20.22,-14.64 -20.22,-37.35 0,-17.16 -0.98,-18.17 -17.64,-18.17l-17.68 0 0 29.78c0,25.24 2.01,31.3 13.14,42.4 16.12,16.66 40.88,21.7 64.58,13.63 27.26,-8.58 33.32,-21.2 33.32,-67.13 0,-38.37 -0.5,-40.39 -16.66,-55.53 -9.09,-9.09 -25.21,-22.72 -35.81,-30.29 -17.68,-13.63 -18.71,-15.64 -17.19,-40.38 1.02,-21.2 3.56,-26.75 11.13,-27.76 13.1,-2.53 23.21,12.11 23.21,32.81 0,15.65 1.02,16.66 17.68,16.66l17.64 0 0 -25.24c0,-30.29 -10.07,-47.45 -31.27,-55.02 -21.2,-7.57 -33.85,-6.57 -52.51,2.52z"/>
   <path class="fil0" d="M0 2055.46c0,16.15 1.01,17.67 15.14,17.67l15.15 0 0 108.52 0 108.53 17.66 0 17.67 0 0 -108.53 0 -108.52 15.15 0c14.13,0 15.14,-1.52 15.14,-17.67l0 -17.67 -47.96 0 -47.95 0 0 17.67z"/>
   <polygon class="fil0" points="383.63,2163.99 383.63,2290.18 401.29,2290.18 418.96,2290.18 418.96,2234.65 418.96,2179.13 439.15,2179.13 459.34,2179.13 459.34,2234.65 459.34,2290.18 477.01,2290.18 494.68,2290.18 494.68,2163.99 494.68,2037.79 477.01,2037.79 459.34,2037.79 459.34,2090.79 459.34,2143.79 439.15,2143.79 418.96,2143.79 418.96,2090.79 418.96,2037.79 401.29,2037.79 383.63,2037.79 "/>
   <path class="fil0" d="M524.97 2163.99l0 126.19 17.67 0 17.67 0 0 -55.53c0,-42.9 1.51,-55.52 6.56,-55.52 4.04,0 9.59,8.58 12.62,18.67 3.03,10.61 10.1,35.85 16.15,55.53l10.6 36.85 22.21 0 22.21 0 -22.21 -65.62 -22.21 -65.62 20.19 -59.06c10.6,-32.31 19.69,-60.07 19.69,-61.08 0,-1.01 -9.59,-1.01 -21.2,0 -19.69,1.51 -21.2,2.53 -27.26,24.23 -3.53,12.62 -10.09,35.84 -14.64,51.49 -5.04,18.17 -11.1,29.27 -15.64,29.27 -5.56,0 -7.07,-10.6 -7.07,-53l0 -53 -17.67 0 -17.67 0 0 126.2z"/>
   <path class="fil0" d="M666.31 2163.99l0 126.19 40.38 0 40.38 0 0 -17.16c0,-17.17 -0.5,-17.67 -21.2,-19.18l-21.71 -1.52 -1.51 -36.85 -1.51 -36.34 20.69 0c19.69,0 20.19,-0.51 20.19,-17.67 0,-17.16 -0.5,-17.67 -20.19,-17.67l-20.19 0 0 -35.33 0 -35.33 22.71 0c22.72,0 22.72,0 22.72,-17.67l0 -17.67 -40.38 0 -40.38 0 0 126.2z"/>
   <path class="fil0" d="M772.31 2163.99l0 126.19 17.67 0 17.66 0 0 -84.3c0,-45.93 1.52,-82.78 3.03,-81.27 1.52,1.52 6.06,18.68 10.1,37.86 3.53,18.68 11.61,55.53 17.67,80.76l10.6 46.95 24.73 0 24.73 0 0 -126.19 0 -126.2 -20.19 0 -20.69 0 1.51 83.29c1.01,45.94 0.51,83.29 -1.01,83.29 -1.51,0 -9.08,-29.28 -16.65,-65.12 -23.23,-108.02 -20.7,-101.46 -46.45,-101.46l-22.71 0 0 126.2z"/>
   <path class="fil0" d="M913.64 2055.46c0,16.15 1.01,17.67 15.15,17.67l15.14 0 0 108.52 0 108.53 17.67 0 17.66 0 0 -108.53 0 -108.52 15.15 0c14.13,0 15.14,-1.52 15.14,-17.67l0 -17.67 -47.95 0 -47.96 0 0 17.67z"/>
   <path class="fil0" d="M1221.57 2149.35c0,70.16 2.02,115.09 5.55,121.65 6.06,11.1 33.32,24.23 50.48,24.23 17.16,0 42.9,-14.64 49.47,-28.27 3.53,-8.07 5.55,-50.48 5.55,-120.64l0 -108.53 -20.19 0 -20.19 0 0 108.02c0,105 -0.51,108.53 -10.1,111.56 -23.22,7.57 -25.24,-1.51 -25.24,-114.08l0 -105.5 -17.66 0 -17.67 0 0 111.56z"/>
   <path class="fil0" d="M1357.86 2163.99l0 126.19 17.67 0 17.66 0 0 -103.48c0,-57.04 2.02,-103.48 4.04,-103.48 2.52,0 8.58,42.4 13.12,94.4 5.05,52.49 10.1,98.93 11.61,103.47 1.52,7.07 7.57,9.09 26.76,9.09l24.23 0 3.03 -24.23c1.51,-13.13 6.56,-60.07 11.1,-104.49 4.54,-44.42 9.09,-81.77 10.1,-82.78 1.01,-1.01 2.01,45.93 2.01,104.49l0 107.01 20.2 0 20.19 0 0 -126.19 0 -126.2 -35.34 0c-24.73,0 -35.33,2.02 -35.33,6.06 0,3.53 -3.54,39.37 -7.57,79.75 -4.04,40.39 -7.58,85.31 -7.58,99.45 0,14.63 -2.01,26.75 -5.04,26.75 -2.53,0 -5.05,-12.12 -5.05,-26.75 0,-14.14 -3.53,-58.06 -7.57,-96.92 -4.04,-38.87 -7.57,-74.71 -7.57,-79.76 0,-7.07 -5.05,-8.58 -35.34,-8.58l-35.33 0 0 126.2z"/>
   <path class="fil0" d="M1590.05 2039.81c0,1.01 -6.56,53 -15.14,115.59 -8.08,62.6 -15.15,118.63 -15.15,124.18 0,8.58 3.03,10.6 17.67,10.6 18.17,0 20.19,-3.03 23.72,-47.96 1.52,-12.61 4.04,-15.64 16.16,-16.65 17.67,-2.02 23.22,5.05 23.22,30.28 0,29.28 4.04,34.33 25.74,34.33 18.68,0 19.18,-0.5 17.17,-14.13 -1.52,-7.57 -8.08,-59.06 -15.15,-114.59 -17.16,-136.79 -12.11,-123.67 -47.95,-123.67 -16.66,0 -30.29,1.01 -30.29,2.02zm37.86 91.36c2.02,29.28 4.04,54.52 4.04,56.54 0.5,2.52 -5.56,4.54 -13.63,5.55 -12.62,1.52 -14.14,0.51 -11.61,-10.09 1.51,-6.57 4.54,-32.81 6.56,-58.56 1.51,-25.24 5.05,-46.44 7.07,-46.44 2.01,0 5.55,23.73 7.57,53z"/>
   <path class="fil0" d="M1701.1 2163.99l0 126.19 17.66 0 17.67 0 0 -84.3c0,-45.93 1.51,-82.78 3.03,-81.27 1.51,1.52 6.06,18.68 10.09,37.86 3.54,18.68 11.62,55.53 17.67,80.76l10.6 46.95 24.74 0 24.73 0 0 -126.19 0 -126.2 -20.19 0 -20.7 0 1.52 83.29c1.01,45.94 0.5,83.29 -1.01,83.29 -1.52,0 -9.09,-29.28 -16.66,-65.12 -23.22,-108.02 -20.7,-101.46 -46.44,-101.46l-22.71 0 0 126.2z"/>
   <polygon class="fil0" points="1857.59,2163.99 1857.59,2290.18 1875.26,2290.18 1892.92,2290.18 1892.92,2163.99 1892.92,2037.79 1875.26,2037.79 1857.59,2037.79 "/>
   <path class="fil0" d="M1913.1 2055.46c0,16.15 1.01,17.67 15.15,17.67l15.14 0 0 108.52 0 108.53 17.67 0 17.66 0 0 -108.53 0 -108.52 15.15 0c14.13,0 15.14,-1.52 15.14,-17.67l0 -17.67 -47.95 0 -47.96 0 0 17.67z"/>
   <path class="fil0" d="M2034.25 2039.81c0,1.01 -6.56,53 -15.14,115.59 -8.08,62.6 -15.15,118.63 -15.15,124.18 0,8.58 3.03,10.6 17.67,10.6 18.17,0 20.19,-3.03 23.72,-47.96 1.52,-12.61 4.04,-15.64 16.16,-16.65 17.67,-2.02 23.22,5.05 23.22,30.28 0,29.28 4.04,34.33 25.74,34.33 18.68,0 19.18,-0.5 17.16,-14.13 -1.51,-7.57 -8.08,-59.06 -15.14,-114.59 -17.16,-136.79 -12.11,-123.67 -47.95,-123.67 -16.66,0 -30.29,1.01 -30.29,2.02zm37.86 91.36c2.01,29.28 4.04,54.52 4.04,56.54 0.5,2.52 -5.56,4.54 -13.63,5.55 -12.62,1.52 -14.14,0.51 -11.61,-10.09 1.51,-6.57 4.54,-32.81 6.56,-58.56 1.51,-25.24 5.05,-46.44 7.07,-46.44 2.01,0 5.55,23.73 7.57,53z"/>
   <path class="fil0" d="M2150.35 2163.48l0 126.7 17.67 0 17.16 0 1.52 -48.96c1.51,-41.4 3.03,-49.47 10.09,-50.99 6.56,-1.51 10.6,8.08 19.69,48.97l11.1 50.98 19.69 0c10.6,0 19.18,-1.52 19.18,-3.03 0,-1.51 -5.55,-25.24 -12.62,-53l-12.62 -49.97 10.1 -10.1c8.58,-8.58 10.09,-16.66 10.09,-57.55 0,-43.4 -1,-49.46 -12.11,-62.08 -11.61,-13.12 -15.65,-14.14 -55.52,-16.15l-43.42 -1.52 0 126.7zm70.67 -80.76c2.52,5.55 5.05,21.2 5.05,35.33 0,28.27 -9.59,42.4 -27.26,39.88 -9.59,-1.51 -10.6,-5.05 -12.11,-43.41l-1.52 -41.39 15.15 0c10.09,0 17.16,3.53 20.69,9.59z"/>
   <path class="fil0" d="M2337.12 2163.99l0 126.19 17.66 0 17.67 0 0 -55.53 0 -55.52 20.19 0c19.69,0 20.19,-0.51 20.19,-17.67 0,-17.16 -0.5,-17.67 -20.19,-17.67l-20.19 0 0 -35.33 0 -35.33 22.71 0c22.72,0 22.72,0 22.72,-17.67l0 -17.67 -40.38 0 -40.38 0 0 126.2z"/>
   <path class="fil0" d="M2458.26 2039.81c0,1.01 -6.56,53 -15.14,115.59 -8.08,62.6 -15.14,118.63 -15.14,124.18 0,8.58 3.02,10.6 17.66,10.6 18.18,0 20.19,-3.03 23.72,-47.96 1.52,-12.61 4.05,-15.64 16.16,-16.65 17.67,-2.02 23.22,5.05 23.22,30.28 0,29.28 4.04,34.33 25.74,34.33 18.68,0 19.18,-0.5 17.17,-14.13 -1.52,-7.57 -8.08,-59.06 -15.15,-114.59 -17.16,-136.79 -12.11,-123.67 -47.95,-123.67 -16.66,0 -30.29,1.01 -30.29,2.02zm37.86 91.36c2.02,29.28 4.04,54.52 4.04,56.54 0.5,2.52 -5.56,4.54 -13.63,5.55 -12.62,1.52 -14.14,0.51 -11.61,-10.09 1.51,-6.57 4.54,-32.81 6.56,-58.56 1.51,-25.24 5.05,-46.44 7.07,-46.44 2.02,0 5.55,23.73 7.57,53z"/>
   <path class="fil0" d="M2569.32 2163.99l0 126.19 17.67 0 17.67 0 0 -84.3c0,-45.93 1.51,-82.78 3.02,-81.27 1.52,1.52 6.06,18.68 10.1,37.86 3.53,18.68 11.61,55.53 17.67,80.76l10.6 46.95 24.73 0 24.74 0 0 -126.19 0 -126.2 -20.19 0 -20.7 0 1.51 83.29c1.01,45.94 0.51,83.29 -1,83.29 -1.52,0 -9.09,-29.28 -16.66,-65.12 -23.22,-108.02 -20.7,-101.46 -46.44,-101.46l-22.72 0 0 126.2z"/>
   <path class="fil0" d="M2720.76 2163.99l0 126.19 40.38 0 40.38 0 0 -17.16c0,-17.17 -0.51,-17.67 -21.2,-19.18l-21.71 -1.52 -1.51 -107.52 -1.01 -107.01 -17.67 0 -17.66 0 0 126.2z"/>
   <path class="fil0" d="M2841.9 2039.81c0,1.01 -6.56,53 -15.14,115.59 -8.08,62.6 -15.14,118.63 -15.14,124.18 0,8.58 3.02,10.6 17.66,10.6 18.18,0 20.19,-3.03 23.73,-47.96 1.51,-12.61 4.04,-15.64 16.15,-16.65 17.67,-2.02 23.22,5.05 23.22,30.28 0,29.28 4.04,34.33 25.74,34.33 18.68,0 19.18,-0.5 17.17,-14.13 -1.52,-7.57 -8.08,-59.06 -15.15,-114.59 -17.16,-136.79 -12.11,-123.67 -47.95,-123.67 -16.66,0 -30.29,1.01 -30.29,2.02zm37.86 91.36c2.02,29.28 4.04,54.52 4.04,56.54 0.5,2.52 -5.55,4.54 -13.63,5.55 -12.62,1.52 -14.14,0.51 -11.61,-10.09 1.51,-6.57 4.54,-32.81 6.56,-58.56 1.52,-25.24 5.05,-46.44 7.07,-46.44 2.02,0 5.55,23.73 7.57,53z"/>
   <path class="fil0" d="M2952.95 2163.48l0 126.7 17.67 0 17.16 0 1.51 -48.96c1.52,-41.4 3.03,-49.47 10.1,-50.99 6.56,-1.51 10.6,8.08 19.69,48.97l11.1 50.98 19.69 0c10.6,0 19.18,-1.52 19.18,-3.03 0,-1.51 -5.56,-25.24 -12.62,-53l-12.62 -49.97 10.09 -10.1c8.58,-8.58 10.1,-16.66 10.1,-57.55 0,-43.4 -1.01,-49.46 -12.12,-62.08 -11.6,-13.12 -15.64,-14.14 -55.52,-16.15l-43.41 -1.52 0 126.7zm70.67 -80.76c2.52,5.55 5.05,21.2 5.05,35.33 0,28.27 -9.59,42.4 -27.26,39.88 -9.59,-1.51 -10.6,-5.05 -12.12,-43.41l-1.51 -41.39 15.14 0c10.1,0 17.16,3.53 20.7,9.59z"/>
   <path class="fil0" d="M3144.77 2149.35c0,70.16 2.02,115.09 5.55,121.65 6.06,11.1 33.32,24.23 50.48,24.23 17.16,0 42.9,-14.64 49.47,-28.27 3.53,-8.07 5.55,-50.48 5.55,-120.64l0 -108.53 -20.19 0 -20.19 0 0 108.02c0,105 -0.51,108.53 -10.1,111.56 -23.22,7.57 -25.24,-1.51 -25.24,-114.08l0 -105.5 -17.66 0 -17.67 0 0 111.56z"/>
   <path class="fil0" d="M3286.1 2163.99l0 126.19 17.67 0 17.67 0 0 -84.3c0,-45.93 1.51,-82.78 3.02,-81.27 1.52,1.52 6.06,18.68 10.1,37.86 3.53,18.68 11.61,55.53 17.67,80.76l10.6 46.95 24.73 0 24.74 0 0 -126.19 0 -126.2 -20.19 0 -20.7 0 1.51 83.29c1.01,45.94 0.51,83.29 -1.01,83.29 -1.51,0 -9.08,-29.28 -16.65,-65.12 -23.22,-108.02 -20.7,-101.46 -46.44,-101.46l-22.72 0 0 126.2z"/>
   <polygon class="fil0" points="3437.54,2163.99 3437.54,2290.18 3455.2,2290.18 3472.87,2290.18 3472.87,2163.99 3472.87,2037.79 3455.2,2037.79 3437.54,2037.79 "/>
   <path class="fil0" d="M3495.07 2056.47c3.03,19.18 28.27,226.14 28.27,231.18 0,1.52 13.63,2.53 30.29,2.53 29.78,0 29.78,0 32.81,-16.66 3.03,-19.18 27.76,-222.1 27.76,-230.18 0,-3.03 -8.58,-5.55 -19.69,-5.55l-19.18 0 -3.03 41.39c-7.06,86.82 -15.14,170.62 -17.16,169.1 -1.01,-1 -5.04,-39.37 -9.08,-84.8 -12.12,-135.28 -9.59,-125.69 -33.32,-125.69l-20.7 0 3.03 18.68z"/>
   <path class="fil0" d="M3639.44 2163.99l0 126.19 40.38 0 40.38 0 0 -17.16c0,-17.17 -0.5,-17.67 -21.2,-19.18l-21.7 -1.52 -1.52 -36.85 -1.51 -36.34 20.7 0c19.68,0 20.19,-0.51 20.19,-17.67 0,-17.16 -0.51,-17.67 -20.19,-17.67l-20.2 0 0 -35.33 0 -35.33 22.72 0c22.71,0 22.71,0 22.71,-17.67l0 -17.67 -40.38 0 -40.38 0 0 126.2z"/>
   <path class="fil0" d="M3740.4 2163.48l0 126.7 17.67 0 17.16 0 1.52 -48.96c1.51,-41.4 3.02,-49.47 10.1,-50.99 6.55,-1.51 10.6,8.08 19.68,48.97l11.1 50.98 19.68 0c10.6,0 19.2,-1.52 19.2,-3.03 0,-1.51 -5.57,-25.24 -12.61,-53l-12.65 -49.97 10.11 -10.1c8.6,-8.58 10.11,-16.66 10.11,-57.55 0,-43.4 -1.02,-49.46 -12.11,-62.08 -11.63,-13.12 -15.68,-14.14 -55.55,-16.15l-43.41 -1.52 0 126.7zm70.68 -80.76c2.53,5.55 5.03,21.2 5.03,35.33 0,28.27 -9.58,42.4 -27.26,39.88 -9.58,-1.51 -10.59,-5.05 -12.1,-43.41l-1.52 -41.39 15.14 0c10.1,0 17.18,3.53 20.71,9.59z"/>
   <polygon class="fil0" points="4007.94,2163.99 4007.94,2290.18 4025.62,2290.18 4043.26,2290.18 4043.26,2163.99 4043.26,2037.79 4025.62,2037.79 4007.94,2037.79 "/>
   <path class="fil0" d="M4068.51 2055.46c0,16.15 1.02,17.67 15.15,17.67l15.14 0 0 108.52 0 108.53 17.68 0 17.64 0 0 -108.53 0 -108.52 15.14 0c14.16,0 15.15,-1.52 15.15,-17.67l0 -17.67 -47.93 0 -47.97 0 0 17.67z"/>
   <path class="fil0" d="M4179.55 2163.99l0 126.19 40.4 0 40.39 0 0 -17.16c0,-17.17 -0.53,-17.67 -21.2,-19.18l-21.73 -1.52 -1.51 -36.85 -1.52 -36.34 20.71 0c19.68,0 20.18,-0.51 20.18,-17.67 0,-17.16 -0.5,-17.67 -20.18,-17.67l-20.18 0 0 -35.33 0 -35.33 22.72 0c22.71,0 22.71,0 22.71,-17.67l0 -17.67 -40.39 0 -40.4 0 0 126.2z"/>
   <path class="fil0" d="M4280.52 2055.46c0,16.15 1.02,17.67 15.14,17.67l15.15 0 0 108.52 0 108.53 17.68 0 17.64 0 0 -108.53 0 -108.52 15.14 0c14.16,0 15.14,-1.52 15.14,-17.67l0 -17.67 -47.92 0 -47.97 0 0 17.67z"/>
   <polygon class="fil0" points="4391.56,2163.99 4391.56,2290.18 4409.24,2290.18 4426.92,2290.18 4426.92,2163.99 4426.92,2037.79 4409.24,2037.79 4391.56,2037.79 "/>
  </g>
 </g>
</svg>
