<?xml version="1.0" encoding="UTF-8"?>
<!DOCTYPE svg PUBLIC "-//W3C//DTD SVG 1.1//EN" "http://www.w3.org/Graphics/SVG/1.1/DTD/svg11.dtd">
<!-- Creator: CorelDRAW 2020 (64-Bit) -->
<svg xmlns="http://www.w3.org/2000/svg" xml:space="preserve" width="103px" height="86px" version="1.1" style="shape-rendering:geometricPrecision; text-rendering:geometricPrecision; image-rendering:optimizeQuality; fill-rule:evenodd; clip-rule:evenodd"
viewBox="0 0 1.78 1.48"
 xmlns:xlink="http://www.w3.org/1999/xlink"
 xmlns:xodm="http://www.corel.com/coreldraw/odm/2003">
 <defs>
  <style type="text/css">
   <![CDATA[
    .fil0 {fill:#1E3476;fill-rule:nonzero}
   ]]>
  </style>
 </defs>
 <g id="Слой_x0020_1">
  <metadata id="CorelCorpID_0Corel-Layer"/>
  <g id="_2459334809760">
   <path class="fil0" d="M0.44 0.22c-0.24,0.12 -0.44,0.22 -0.44,0.22 0,0.01 0.04,0.03 0.09,0.06l0.09 0.04 0 0.14c0,0.11 -0.01,0.14 -0.02,0.15 -0.01,0.01 -0.01,0.02 -0.01,0.05 0,0.02 0,0.06 0,0.09 -0.01,0.06 0,0.07 0.04,0.07 0.04,0 0.05,-0.01 0.04,-0.08 -0.01,-0.04 -0.01,-0.07 0,-0.08 0.01,-0.02 0,-0.03 -0.01,-0.04 -0.02,-0.02 -0.02,-0.04 -0.02,-0.15 0,-0.07 0,-0.13 0,-0.13 0.01,0 0.16,0.08 0.35,0.17l0.34 0.16 0.45 -0.22c0.24,-0.12 0.44,-0.22 0.44,-0.23 0,0 -0.87,-0.44 -0.89,-0.44 0,0 -0.2,0.1 -0.45,0.22z"/>
   <path class="fil0" d="M0.37 1.03l0 0.18 0.27 0.14 0.27 0.13 0.27 -0.14 0.28 -0.14 0 -0.17c0,-0.1 -0.01,-0.18 -0.01,-0.18 0,0 -0.13,0.06 -0.27,0.13l-0.27 0.13 -0.27 -0.14 -0.27 -0.13 0 0.19z"/>
  </g>
 </g>
</svg>
