<?xml version="1.0" encoding="UTF-8"?>
<!DOCTYPE svg PUBLIC "-//W3C//DTD SVG 1.1//EN" "http://www.w3.org/Graphics/SVG/1.1/DTD/svg11.dtd">
<!-- Creator: CorelDRAW 2020 (64-Bit) -->
<svg xmlns="http://www.w3.org/2000/svg" xml:space="preserve" width="2118px" height="1578px" version="1.1" style="shape-rendering:geometricPrecision; text-rendering:geometricPrecision; image-rendering:optimizeQuality; fill-rule:evenodd; clip-rule:evenodd"
viewBox="0 0 385.56 287.22"
 xmlns:xlink="http://www.w3.org/1999/xlink"
 xmlns:xodm="http://www.corel.com/coreldraw/odm/2003">
 <defs>
  <style type="text/css">
   <![CDATA[
    .fil0 {fill:#FEFEFE;fill-rule:nonzero}
   ]]>
  </style>
 </defs>
 <g id="Слой_x0020_1">
  <metadata id="CorelCorpID_0Corel-Layer"/>
  <g id="_2493836607168">
   <path class="fil0" d="M299.25 10.93c-12.23,6.07 -22.21,11.19 -22.21,11.33 -0.05,0.15 1.98,1.35 4.42,2.64l4.47 2.33 0 6.86c0,5.72 -0.15,7.01 -0.79,7.56 -0.55,0.44 -0.7,1.14 -0.55,2.43 0.15,0.94 0.1,2.98 -0.15,4.47 -0.4,2.98 -0.1,3.48 1.99,3.48 2.33,0 2.63,-0.55 2.09,-4.02 -0.3,-2.09 -0.3,-3.48 0,-4.08 0.34,-0.69 0.24,-1.19 -0.55,-2.04 -0.95,-0.99 -1.04,-1.69 -1.04,-7.4 0,-3.48 0.14,-6.31 0.34,-6.31 0.15,0 8,3.72 17.45,8.3l17.09 8.3 22.31 -11.19c12.28,-6.11 22.31,-11.23 22.31,-11.38 0,-0.19 -43.72,-21.96 -44.67,-22.21 -0.15,-0.05 -10.29,4.87 -22.51,10.93l0 0z"/>
   <path class="fil0" d="M144.3 2.58c-1.49,0.35 -3.43,0.7 -4.32,0.7 -2.04,0.05 -8.2,2.04 -11.63,3.78 -9,4.52 -15.61,12.27 -18.64,21.86 -0.84,2.69 -0.94,4.62 -0.94,18.14l0 15.16 13.66 0 13.67 0 0.25 -12.67c0.25,-12.03 0.3,-12.77 1.44,-15.06 1.94,-4.03 5.86,-6.26 10.98,-6.31 3.88,0 6.22,0.79 8.55,2.88 3.83,3.43 4.08,4.62 4.37,18.73l0.25 12.43 13.67 0 13.66 0 0.15 -12.18c0.1,-7.9 -0.05,-13.66 -0.44,-16.4 -0.75,-5.02 -2.94,-10.53 -6.12,-15.3 -5.16,-7.8 -15.05,-13.57 -26.33,-15.31 -7.01,-1.09 -9.1,-1.19 -12.23,-0.45l0 0z"/>
   <path class="fil0" d="M22.15 3.08c-0.45,0.55 -0.6,3.58 -0.5,12.77l0.15 12.08 13.67 0.25c7.5,0.15 13.71,0.35 13.81,0.4 0.05,0.05 0.1,7.7 0.1,16.99l0 16.9 13.92 0 13.91 0 0 -16.85c0,-14.91 0.1,-16.9 0.8,-17.14 0.44,-0.15 6.41,-0.3 13.32,-0.3 9.09,0 12.67,-0.15 13.12,-0.6 0.89,-0.89 0.79,-23.21 -0.1,-24.4 -0.6,-0.79 -3.13,-0.84 -41.1,-0.84 -34.54,0.05 -40.55,0.15 -41.1,0.74l0 0z"/>
   <path class="fil0" d="M208.16 6.41c-0.15,0.35 -0.2,13.07 -0.15,28.23l0.15 27.58 13.56 0.15 13.52 0.1 0.5 -1.25c0.3,-0.74 0.49,-7.5 0.49,-15.7l0 -14.36 15.56 -0.1 15.5 -0.15 0 -12.42 0 -12.43 -29.47 -0.15c-23.3,-0.1 -29.51,0 -29.66,0.5l0 0z"/>
   <path class="fil0" d="M295.37 51.44l0 9.29 13.67 6.86 13.66 6.8 13.67 -7 13.67 -7.01 0 -8.9c0,-4.87 -0.1,-8.89 -0.25,-8.89 -0.15,0 -6.31,2.93 -13.72,6.56l-13.47 6.56 -13.61 -6.81 -13.62 -6.81 0 9.35 0 0z"/>
   <path class="fil0" d="M50.13 74.49c-0.15,0.35 -0.2,23.11 -0.15,50.59l0.15 49.95 13.81 0.15 13.77 0.09 0 -50.68 0 -50.69 -13.67 0c-10.48,0 -13.76,0.15 -13.91,0.59z"/>
   <path class="fil0" d="M108.12 113.01l0.84 38.91 0.5 3.48c2.34,6.56 4.18,9.59 8.2,13.81 3.28,3.43 7.16,5.77 12.58,7.6 4.02,1.35 4.82,1.45 11.68,1.45 6.66,0 7.7,-0.1 11.18,-1.35 2.13,-0.69 4.67,-1.73 5.61,-2.28 3.83,-2.19 11.18,-8.4 11.18,-10.79 0.91,-0.93 -0.88,-1.44 -0.18,-0.74 0.37,0.37 0.18,2.93 0.18,6.11l0 5.82 9.69 0 9.69 0 0 -50.44 0 -50.44 -20.12 0 -20.13 0 -0.15 9.93c-0.05,5.47 0,10.44 0.15,11.04 0.25,1.04 0.55,1.14 6.36,1.24l6.07 0.15 0.15 23.35c0.09,14.91 -0.06,24.01 -0.35,25.1 -0.8,2.68 -3.63,5.67 -6.61,6.96 -6.56,2.83 -14.61,0.2 -17.35,-5.72 -0.84,-1.89 -0.94,-3.97 -0.94,-36.37 0,-18.89 -0.15,-34.69 -0.3,-35.14 -0.25,-0.69 -1.99,-0.79 -14.16,-0.79l-13.92 0 0.15 39.11 0 0z"/>
   <polygon class="fil0" points="207.41,124.59 207.41,175.27 221.48,175.18 235.49,175.03 235.74,136.26 235.99,97.5 249.9,97.25 263.82,97.01 263.82,85.58 263.82,74.15 235.64,74 207.41,73.9 "/>
   <path class="fil0" d="M280.66 74.59c-0.15,0.35 -0.2,17.05 -0.1,37.12l0.59 36.48 0.85 4.08c2.39,7.55 7.51,14.66 13.47,18.63 5.07,3.33 7.6,4.52 13.32,6.16 4.17,1.2 4.97,1.25 13.52,1.1 8.79,-0.15 9.24,-0.25 14.01,-1.84 6.11,-2.14 12.67,-6.11 16.05,-9.84 3.08,-3.38 6.81,-9.79 7.9,-13.57 0.45,-1.49 1,-3.13 1.25,-3.58 0.24,-0.49 0.44,-17.29 0.44,-38.16l0 -37.27 -13.91 0 -13.92 0 0 34.29c0,32.99 -0.05,34.34 -0.99,36.92 -2.39,6.31 -9.29,9.39 -16.4,7.25 -2.88,-0.84 -6.51,-4.42 -7.35,-7.2 -0.45,-1.54 -0.6,-10.83 -0.6,-36.68l0 -34.58 -13.92 0c-11.33,0 -14.01,0.15 -14.21,0.69l0 0z"/>
   <path class="fil0" d="M17.76 202.61c-3.43,1.77 -3.93,4.24 -3.68,16.67 0.19,11.86 0.63,13.26 4.63,14.59 3.23,1.08 6.28,0.32 8.18,-1.97 1.65,-1.9 1.65,-1.96 1.65,-13.95l0 -11.98 -1.71 -1.91c-2.29,-2.53 -5.9,-3.1 -9.07,-1.45zm4.69 3.74c0.89,0.31 1.01,1.96 1.01,11.67 0,10.84 -0.06,11.35 -1.26,11.73 -2.86,0.88 -3.17,-0.38 -3.17,-11.67 0,-11.73 0.31,-12.94 3.42,-11.73l0 0z"/>
   <path class="fil0" d="M34.5 202.54c-2.54,1.21 -3.43,3.24 -3.43,7.61 0,4.5 1.21,6.66 4.95,9.2 3.87,2.6 4.56,3.55 4.56,6.15 0,2.72 -1.01,4.56 -2.53,4.56 -1.59,0 -2.54,-1.84 -2.54,-4.69 0,-2.15 -0.13,-2.28 -2.22,-2.28l-2.22 0 0 3.74c0,3.17 0.26,3.93 1.65,5.33 2.03,2.09 5.14,2.72 8.12,1.71 3.42,-1.08 4.18,-2.66 4.18,-8.44 0,-4.82 -0.06,-5.07 -2.09,-6.97 -1.14,-1.14 -3.17,-2.86 -4.5,-3.81 -2.22,-1.71 -2.35,-1.96 -2.16,-5.07 0.13,-2.66 0.45,-3.36 1.4,-3.49 1.65,-0.31 2.91,1.52 2.91,4.12 0,1.97 0.13,2.1 2.22,2.1l2.22 0 0 -3.17c0,-3.81 -1.26,-5.96 -3.93,-6.92 -2.66,-0.95 -4.25,-0.82 -6.59,0.32l0 0z"/>
   <path class="fil0" d="M138.88 202.61c-3.43,1.77 -3.93,4.18 -3.68,16.99 0.13,6.79 0.51,11.29 0.95,12.11 1.65,2.86 6.6,3.43 9.26,1.08 0.95,-0.95 1.08,-0.95 1.08,0 0,0.7 0.5,1.08 1.58,1.08l1.59 0 0 -9.2 0 -9.19 -3.49 0 -3.49 0 0 2.22c0,1.77 0.26,2.22 1.27,2.22 1.14,0 1.27,0.44 1.27,4.06 0,4.12 -0.89,6.08 -2.79,6.08 -1.97,0 -2.28,-1.52 -2.28,-12.11 0,-11.29 0.31,-12.55 3.17,-11.67 1.01,0.32 1.26,0.95 1.26,3.24l0 2.79 2.54 0 2.54 0 0 -3.17c0,-2.54 -0.32,-3.55 -1.71,-5.08 -2.29,-2.53 -5.9,-3.1 -9.07,-1.45l0 0z"/>
   <path class="fil0" d="M0 204.38c0,2.03 0.13,2.22 1.9,2.22l1.91 0 0 13.63 0 13.64 2.21 0 2.22 0 0 -13.64 0 -13.63 1.91 0c1.77,0 1.9,-0.19 1.9,-2.22l0 -2.22 -6.03 0 -6.02 0 0 2.22z"/>
   <polygon class="fil0" points="48.19,218.02 48.19,233.87 50.41,233.87 52.63,233.87 52.63,226.89 52.63,219.92 55.17,219.92 57.71,219.92 57.71,226.89 57.71,233.87 59.93,233.87 62.15,233.87 62.15,218.02 62.15,202.16 59.93,202.16 57.71,202.16 57.71,208.82 57.71,215.48 55.17,215.48 52.63,215.48 52.63,208.82 52.63,202.16 50.41,202.16 48.19,202.16 "/>
   <path class="fil0" d="M65.95 218.02l0 15.85 2.22 0 2.22 0 0 -6.98c0,-5.39 0.19,-6.97 0.83,-6.97 0.5,0 1.2,1.08 1.58,2.34 0.38,1.34 1.27,4.51 2.03,6.98l1.33 4.63 2.79 0 2.79 0 -2.79 -8.25 -2.79 -8.24 2.54 -7.42c1.33,-4.06 2.47,-7.55 2.47,-7.67 0,-0.13 -1.2,-0.13 -2.66,0 -2.48,0.19 -2.67,0.32 -3.43,3.04 -0.44,1.59 -1.26,4.5 -1.84,6.47 -0.63,2.28 -1.39,3.68 -1.96,3.68 -0.7,0 -0.89,-1.33 -0.89,-6.66l0 -6.66 -2.22 0 -2.22 0 0 15.86 0 0z"/>
   <path class="fil0" d="M83.71 218.02l0 15.85 5.07 0 5.07 0 0 -2.16c0,-2.15 -0.06,-2.22 -2.66,-2.41l-2.73 -0.19 -0.19 -4.63 -0.19 -4.56 2.6 0c2.48,0 2.54,-0.07 2.54,-2.22 0,-2.16 -0.06,-2.22 -2.54,-2.22l-2.53 0 0 -4.44 0 -4.44 2.85 0c2.85,0 2.85,0 2.85,-2.22l0 -2.22 -5.07 0 -5.07 0 0 15.86z"/>
   <path class="fil0" d="M97.02 218.02l0 15.85 2.22 0 2.22 0 0 -10.59c0,-5.77 0.19,-10.4 0.38,-10.21 0.19,0.19 0.76,2.34 1.27,4.75 0.45,2.35 1.46,6.98 2.22,10.15l1.33 5.9 3.11 0 3.11 0 0 -15.85 0 -15.86 -2.54 0 -2.6 0 0.19 10.46c0.13,5.78 0.07,10.47 -0.13,10.47 -0.19,0 -1.14,-3.68 -2.09,-8.18 -2.92,-13.57 -2.6,-12.75 -5.83,-12.75l-2.86 0 0 15.86 0 0z"/>
   <path class="fil0" d="M114.78 204.38c0,2.03 0.13,2.22 1.9,2.22l1.9 0 0 13.63 0 13.64 2.22 0 2.22 0 0 -13.64 0 -13.63 1.91 0c1.77,0 1.9,-0.19 1.9,-2.22l0 -2.22 -6.03 0 -6.02 0 0 2.22z"/>
   <path class="fil0" d="M153.46 216.18c0,8.81 0.26,14.45 0.7,15.28 0.76,1.39 4.19,3.04 6.34,3.04 2.16,0 5.39,-1.84 6.22,-3.55 0.44,-1.01 0.7,-6.34 0.7,-15.15l0 -13.64 -2.54 0 -2.54 0 0 13.57c0,13.19 -0.06,13.64 -1.27,14.02 -2.91,0.95 -3.17,-0.19 -3.17,-14.34l0 -13.25 -2.22 0 -2.22 0 0 14.02 0 0z"/>
   <path class="fil0" d="M170.59 218.02l0 15.85 2.22 0 2.21 0 0 -13c0,-7.17 0.26,-13 0.51,-13 0.32,0 1.08,5.33 1.65,11.86 0.63,6.59 1.27,12.43 1.46,13 0.19,0.88 0.95,1.14 3.36,1.14l3.04 0 0.39 -3.05c0.18,-1.65 0.82,-7.54 1.39,-13.12 0.57,-5.58 1.14,-10.28 1.27,-10.4 0.13,-0.13 0.25,5.77 0.25,13.12l0 13.45 2.54 0 2.54 0 0 -15.85 0 -15.86 -4.44 0c-3.11,0 -4.44,0.25 -4.44,0.76 0,0.45 -0.45,4.95 -0.95,10.02 -0.51,5.08 -0.96,10.72 -0.96,12.49 0,1.84 -0.25,3.37 -0.63,3.37 -0.32,0 -0.63,-1.53 -0.63,-3.37 0,-1.77 -0.45,-7.29 -0.95,-12.17 -0.51,-4.88 -0.96,-9.39 -0.96,-10.02 0,-0.89 -0.63,-1.08 -4.44,-1.08l-4.43 0 0 15.86 0 0z"/>
   <path class="fil0" d="M199.76 202.41c0,0.13 -0.83,6.66 -1.91,14.53 -1.01,7.86 -1.9,14.9 -1.9,15.6 0,1.07 0.38,1.33 2.22,1.33 2.28,0 2.54,-0.38 2.98,-6.03 0.19,-1.58 0.51,-1.96 2.03,-2.09 2.22,-0.25 2.92,0.64 2.92,3.81 0,3.67 0.51,4.31 3.23,4.31 2.35,0 2.41,-0.06 2.16,-1.78 -0.19,-0.95 -1.02,-7.42 -1.9,-14.39 -2.16,-17.19 -1.53,-15.54 -6.03,-15.54 -2.09,0 -3.8,0.13 -3.8,0.25zm4.75 11.48c0.26,3.68 0.51,6.85 0.51,7.11 0.06,0.31 -0.7,0.57 -1.71,0.69 -1.59,0.19 -1.78,0.07 -1.46,-1.27 0.19,-0.82 0.57,-4.12 0.82,-7.35 0.19,-3.17 0.64,-5.84 0.89,-5.84 0.25,0 0.7,2.98 0.95,6.66l0 0z"/>
   <path class="fil0" d="M213.71 218.02l0 15.85 2.22 0 2.22 0 0 -10.59c0,-5.77 0.19,-10.4 0.38,-10.21 0.19,0.19 0.76,2.34 1.26,4.75 0.45,2.35 1.46,6.98 2.22,10.15l1.34 5.9 3.1 0 3.11 0 0 -15.85 0 -15.86 -2.54 0 -2.6 0 0.19 10.46c0.13,5.78 0.07,10.47 -0.12,10.47 -0.19,0 -1.14,-3.68 -2.1,-8.18 -2.91,-13.57 -2.6,-12.75 -5.83,-12.75l-2.85 0 0 15.86 0 0z"/>
   <polygon class="fil0" points="233.37,218.02 233.37,233.87 235.59,233.87 237.8,233.87 237.8,218.02 237.8,202.16 235.59,202.16 233.37,202.16 "/>
   <path class="fil0" d="M240.34 204.38c0,2.03 0.13,2.22 1.9,2.22l1.91 0 0 13.63 0 13.64 2.22 0 2.21 0 0 -13.64 0 -13.63 1.91 0c1.77,0 1.9,-0.19 1.9,-2.22l0 -2.22 -6.02 0 -6.03 0 0 2.22z"/>
   <path class="fil0" d="M255.56 202.41c0,0.13 -0.82,6.66 -1.9,14.53 -1.02,7.86 -1.91,14.9 -1.91,15.6 0,1.07 0.39,1.33 2.22,1.33 2.29,0 2.54,-0.38 2.98,-6.03 0.2,-1.58 0.51,-1.96 2.03,-2.09 2.22,-0.25 2.92,0.64 2.92,3.81 0,3.67 0.51,4.31 3.24,4.31 2.34,0 2.4,-0.06 2.15,-1.78 -0.19,-0.95 -1.01,-7.42 -1.9,-14.39 -2.16,-17.19 -1.52,-15.54 -6.02,-15.54 -2.1,0 -3.81,0.13 -3.81,0.25zm4.76 11.48c0.25,3.68 0.5,6.85 0.5,7.11 0.07,0.31 -0.69,0.57 -1.71,0.69 -1.58,0.19 -1.77,0.07 -1.46,-1.27 0.19,-0.82 0.57,-4.12 0.83,-7.35 0.19,-3.17 0.63,-5.84 0.89,-5.84 0.25,0 0.69,2.98 0.95,6.66l0 0z"/>
   <path class="fil0" d="M270.15 217.95l0 15.92 2.22 0 2.15 0 0.19 -6.15c0.19,-5.2 0.38,-6.22 1.27,-6.41 0.82,-0.19 1.33,1.02 2.47,6.15l1.4 6.41 2.47 0c1.33,0 2.41,-0.19 2.41,-0.38 0,-0.19 -0.7,-3.17 -1.58,-6.66l-1.59 -6.28 1.27 -1.27c1.08,-1.07 1.27,-2.09 1.27,-7.23 0,-5.45 -0.13,-6.21 -1.52,-7.8 -1.46,-1.64 -1.97,-1.77 -6.98,-2.03l-5.45 -0.19 0 15.92 0 0zm8.87 -10.14c0.32,0.69 0.64,2.66 0.64,4.43 0,3.56 -1.21,5.33 -3.43,5.01 -1.2,-0.19 -1.33,-0.63 -1.52,-5.45l-0.19 -5.2 1.9 0c1.27,0 2.16,0.44 2.6,1.21z"/>
   <path class="fil0" d="M293.61 218.02l0 15.85 2.22 0 2.22 0 0 -6.98 0 -6.97 2.53 0c2.48,0 2.54,-0.07 2.54,-2.22 0,-2.16 -0.06,-2.22 -2.54,-2.22l-2.53 0 0 -4.44 0 -4.44 2.85 0c2.85,0 2.85,0 2.85,-2.22l0 -2.22 -5.07 0 -5.07 0 0 15.86z"/>
   <path class="fil0" d="M308.83 202.41c0,0.13 -0.83,6.66 -1.9,14.53 -1.02,7.86 -1.91,14.9 -1.91,15.6 0,1.07 0.38,1.33 2.22,1.33 2.29,0 2.54,-0.38 2.98,-6.03 0.19,-1.58 0.51,-1.96 2.03,-2.09 2.22,-0.25 2.92,0.64 2.92,3.81 0,3.67 0.51,4.31 3.23,4.31 2.35,0 2.41,-0.06 2.16,-1.78 -0.19,-0.95 -1.01,-7.42 -1.9,-14.39 -2.16,-17.19 -1.52,-15.54 -6.03,-15.54 -2.09,0 -3.8,0.13 -3.8,0.25zm4.75 11.48c0.26,3.68 0.51,6.85 0.51,7.11 0.06,0.31 -0.7,0.57 -1.71,0.69 -1.59,0.19 -1.78,0.07 -1.46,-1.27 0.19,-0.82 0.57,-4.12 0.82,-7.35 0.19,-3.17 0.64,-5.84 0.89,-5.84 0.26,0 0.7,2.98 0.95,6.66l0 0z"/>
   <path class="fil0" d="M322.78 218.02l0 15.85 2.22 0 2.22 0 0 -10.59c0,-5.77 0.19,-10.4 0.38,-10.21 0.19,0.19 0.76,2.34 1.27,4.75 0.44,2.35 1.46,6.98 2.22,10.15l1.33 5.9 3.11 0 3.1 0 0 -15.85 0 -15.86 -2.53 0 -2.6 0 0.19 10.46c0.12,5.78 0.06,10.47 -0.13,10.47 -0.19,0 -1.14,-3.68 -2.09,-8.18 -2.92,-13.57 -2.6,-12.75 -5.84,-12.75l-2.85 0 0 15.86 0 0z"/>
   <path class="fil0" d="M341.81 218.02l0 15.85 5.07 0 5.07 0 0 -2.16c0,-2.15 -0.06,-2.22 -2.66,-2.41l-2.73 -0.19 -0.19 -13.51 -0.13 -13.44 -2.22 0 -2.21 0 0 15.86z"/>
   <path class="fil0" d="M357.02 202.41c0,0.13 -0.82,6.66 -1.9,14.53 -1.01,7.86 -1.9,14.9 -1.9,15.6 0,1.07 0.38,1.33 2.22,1.33 2.28,0 2.53,-0.38 2.98,-6.03 0.19,-1.58 0.51,-1.96 2.03,-2.09 2.22,-0.25 2.92,0.64 2.92,3.81 0,3.67 0.5,4.31 3.23,4.31 2.35,0 2.41,-0.06 2.16,-1.78 -0.19,-0.95 -1.02,-7.42 -1.91,-14.39 -2.15,-17.19 -1.52,-15.54 -6.02,-15.54 -2.09,0 -3.81,0.13 -3.81,0.25zm4.76 11.48c0.25,3.68 0.51,6.85 0.51,7.11 0.06,0.31 -0.7,0.57 -1.71,0.69 -1.59,0.19 -1.78,0.07 -1.46,-1.27 0.19,-0.82 0.57,-4.12 0.82,-7.35 0.19,-3.17 0.64,-5.84 0.89,-5.84 0.25,0 0.7,2.98 0.95,6.66l0 0z"/>
   <path class="fil0" d="M370.97 217.95l0 15.92 2.22 0 2.16 0 0.19 -6.15c0.19,-5.2 0.38,-6.22 1.27,-6.41 0.82,-0.19 1.33,1.02 2.47,6.15l1.4 6.41 2.47 0c1.33,0 2.41,-0.19 2.41,-0.38 0,-0.19 -0.7,-3.17 -1.59,-6.66l-1.58 -6.28 1.27 -1.27c1.07,-1.07 1.27,-2.09 1.27,-7.23 0,-5.45 -0.13,-6.21 -1.53,-7.8 -1.45,-1.64 -1.96,-1.77 -6.97,-2.03l-5.46 -0.19 0 15.92 0 0zm8.88 -10.14c0.32,0.69 0.64,2.66 0.64,4.43 0,3.56 -1.21,5.33 -3.43,5.01 -1.2,-0.19 -1.33,-0.63 -1.52,-5.45l-0.19 -5.2 1.9 0c1.27,0 2.16,0.44 2.6,1.21l0 0z"/>
   <path class="fil0" d="M120.63 268.9c0,8.81 0.26,14.46 0.7,15.28 0.76,1.39 4.19,3.04 6.34,3.04 2.16,0 5.39,-1.84 6.22,-3.55 0.44,-1.01 0.7,-6.34 0.7,-15.15l0 -13.64 -2.54 0 -2.54 0 0 13.57c0,13.19 -0.06,13.64 -1.27,14.02 -2.91,0.95 -3.17,-0.19 -3.17,-14.33l0 -13.26 -2.22 0 -2.22 0 0 14.02 0 0z"/>
   <path class="fil0" d="M138.39 270.74l0 15.85 2.22 0 2.22 0 0 -10.59c0,-5.77 0.19,-10.4 0.38,-10.21 0.19,0.19 0.76,2.35 1.27,4.75 0.44,2.35 1.46,6.98 2.22,10.15l1.33 5.9 3.11 0 3.1 0 0 -15.85 0 -15.86 -2.53 0 -2.6 0 0.19 10.47c0.12,5.77 0.06,10.46 -0.13,10.46 -0.19,0 -1.14,-3.68 -2.09,-8.18 -2.92,-13.57 -2.6,-12.75 -5.84,-12.75l-2.85 0 0 15.86 0 0z"/>
   <polygon class="fil0" points="157.41,270.74 157.41,286.59 159.63,286.59 161.85,286.59 161.85,270.74 161.85,254.88 159.63,254.88 157.41,254.88 "/>
   <path class="fil0" d="M164.64 257.23c0.38,2.41 3.55,28.41 3.55,29.04 0,0.19 1.72,0.32 3.81,0.32 3.74,0 3.74,0 4.12,-2.09 0.38,-2.41 3.49,-27.91 3.49,-28.92 0,-0.38 -1.08,-0.7 -2.48,-0.7l-2.4 0 -0.39 5.2c-0.88,10.91 -1.9,21.44 -2.15,21.25 -0.13,-0.13 -0.63,-4.95 -1.14,-10.66 -1.52,-16.99 -1.21,-15.79 -4.19,-15.79l-2.6 0 0.38 2.35 0 0z"/>
   <path class="fil0" d="M182.78 270.74l0 15.85 5.07 0 5.07 0 0 -2.16c0,-2.15 -0.06,-2.22 -2.66,-2.41l-2.72 -0.19 -0.2 -4.63 -0.19 -4.56 2.61 0c2.47,0 2.53,-0.07 2.53,-2.22 0,-2.16 -0.06,-2.22 -2.53,-2.22l-2.54 0 0 -4.44 0 -4.44 2.85 0c2.85,0 2.85,0 2.85,-2.22l0 -2.22 -5.07 0 -5.07 0 0 15.86z"/>
   <path class="fil0" d="M195.46 270.67l0 15.92 2.22 0 2.16 0 0.19 -6.15c0.19,-5.2 0.38,-6.22 1.27,-6.41 0.82,-0.19 1.33,1.02 2.47,6.15l1.39 6.41 2.48 0c1.33,0 2.41,-0.19 2.41,-0.38 0,-0.19 -0.7,-3.17 -1.58,-6.66l-1.59 -6.28 1.27 -1.27c1.08,-1.07 1.27,-2.09 1.27,-7.23 0,-5.45 -0.13,-6.21 -1.53,-7.8 -1.46,-1.64 -1.96,-1.77 -6.97,-2.02l-5.46 -0.2 0 15.92zm8.88 -10.14c0.32,0.69 0.63,2.66 0.63,4.43 0,3.56 -1.2,5.33 -3.42,5.01 -1.2,-0.19 -1.33,-0.63 -1.52,-5.45l-0.19 -5.2 1.9 0c1.27,0 2.16,0.44 2.6,1.21l0 0z"/>
   <path class="fil0" d="M215.38 255.26c-2.54,1.21 -3.43,3.24 -3.43,7.61 0,4.5 1.21,6.66 4.95,9.2 3.86,2.6 4.56,3.55 4.56,6.15 0,2.72 -1.01,4.56 -2.53,4.56 -1.59,0 -2.54,-1.84 -2.54,-4.69 0,-2.15 -0.12,-2.28 -2.22,-2.28l-2.22 0 0 3.74c0,3.17 0.25,3.93 1.65,5.33 2.03,2.09 5.14,2.72 8.12,1.71 3.42,-1.08 4.18,-2.66 4.18,-8.43 0,-4.82 -0.06,-5.08 -2.09,-6.98 -1.14,-1.14 -3.17,-2.86 -4.5,-3.81 -2.22,-1.71 -2.35,-1.96 -2.16,-5.07 0.13,-2.66 0.45,-3.36 1.4,-3.49 1.64,-0.31 2.91,1.52 2.91,4.13 0,1.96 0.13,2.09 2.23,2.09l2.21 0 0 -3.17c0,-3.81 -1.26,-5.96 -3.93,-6.91 -2.66,-0.96 -4.25,-0.83 -6.59,0.31l0 0z"/>
   <polygon class="fil0" points="229.07,270.74 229.07,286.59 231.29,286.59 233.51,286.59 233.51,270.74 233.51,254.88 231.29,254.88 229.07,254.88 "/>
   <path class="fil0" d="M236.68 257.1c0,2.03 0.13,2.22 1.91,2.22l1.9 0 0 13.63 0 13.64 2.22 0 2.22 0 0 -13.64 0 -13.63 1.9 0c1.78,0 1.9,-0.19 1.9,-2.22l0 -2.22 -6.02 0 -6.03 0 0 2.22z"/>
   <path class="fil0" d="M250.63 270.74l0 15.85 5.08 0 5.07 0 0 -2.16c0,-2.15 -0.06,-2.22 -2.66,-2.41l-2.73 -0.19 -0.19 -4.63 -0.19 -4.56 2.6 0c2.47,0 2.54,-0.07 2.54,-2.22 0,-2.16 -0.07,-2.22 -2.54,-2.22l-2.54 0 0 -4.44 0 -4.44 2.86 0c2.85,0 2.85,0 2.85,-2.22l0 -2.22 -5.07 0 -5.08 0 0 15.86 0 0z"/>
   <path class="fil0" d="M263.32 257.1c0,2.03 0.13,2.22 1.9,2.22l1.9 0 0 13.63 0 13.64 2.22 0 2.22 0 0 -13.64 0 -13.63 1.9 0c1.78,0 1.9,-0.19 1.9,-2.22l0 -2.22 -6.02 0 -6.02 0 0 2.22z"/>
   <polygon class="fil0" points="277.27,270.74 277.27,286.59 279.49,286.59 281.71,286.59 281.71,270.74 281.71,254.88 279.49,254.88 277.27,254.88 "/>
  </g>
 </g>
</svg>
